<?xml version="1.0" encoding="utf-8"?>
<!-- Generator: Adobe Illustrator 17.1.0, SVG Export Plug-In . SVG Version: 6.00 Build 0)  -->
<!DOCTYPE svg PUBLIC "-//W3C//DTD SVG 1.1//EN" "http://www.w3.org/Graphics/SVG/1.1/DTD/svg11.dtd">
<svg version="1.1" id="Layer_1" xmlns="http://www.w3.org/2000/svg" xmlns:xlink="http://www.w3.org/1999/xlink" x="0px" y="0px"
	 viewBox="0 0 180 200" enable-background="new 0 0 180 200" xml:space="preserve">
<filter  id="AI_Shadow_1" filterUnits="objectBoundingBox">
	<feGaussianBlur  in="SourceAlpha" stdDeviation="2" result="blur"></feGaussianBlur>
	<feOffset  dy="2" dx="2" in="blur" result="offsetBlurredAlpha"></feOffset>
	<feMerge>
		<feMergeNode  in="offsetBlurredAlpha"></feMergeNode>
		<feMergeNode  in="SourceGraphic"></feMergeNode>
	</feMerge>
</filter>
<g filter="url(#AI_Shadow_1)">
	<line fill="none" stroke="#E7F3E8" stroke-width="3" stroke-miterlimit="10" x1="83.871" y1="109.129" x2="13.021" y2="35.383"/>
	<line fill="none" stroke="#E7F3E8" stroke-width="3" stroke-miterlimit="10" x1="83.871" y1="109.129" x2="21.698" y2="106.793"/>
	<line fill="none" stroke="#E7F3E8" stroke-width="3" stroke-miterlimit="10" x1="82.197" y1="107.556" x2="57.221" y2="168.559"/>
	<line fill="none" stroke="#E7F3E8" stroke-width="3" stroke-miterlimit="10" x1="83.871" y1="109.129" x2="150.5" y2="133"/>
	<line fill="none" stroke="#E7F3E8" stroke-width="3" stroke-miterlimit="10" x1="144.969" y1="19.152" x2="83.871" y2="109.129"/>
	<line fill="none" stroke="#E7F3E8" stroke-width="3" stroke-miterlimit="10" x1="156.601" y1="73.1" x2="83.871" y2="109.129"/>
	<line fill="none" stroke="#E7F3E8" stroke-width="3" stroke-miterlimit="10" x1="115.746" y1="152.028" x2="83.871" y2="109.129"/>
	<line fill="none" stroke="#E7F3E8" stroke-width="3" stroke-miterlimit="10" x1="83.871" y1="109.129" x2="70.528" y2="43.294"/>
	<g>
		<path fill="#E7F3E8" d="M22.317,28.313c0,0,0.039-1.127-1.283-1.711c0,0-2.79-0.365-4.12-0.24
			c-0.316-0.062-0.703-0.081-1.178-0.044c-0.139-1.272-1.204-1.541-1.856-1.654c-0.661-0.118-4.354,0.738-5.675,1.166
			c-1.106,0.357-1.208,1.554-1.21,1.939l-3.457,0.577c0,0-1.202,0.383-1.563,1.494c0,0-0.342,2.145-0.505,4.535
			c-0.014,0.2,0.096,0.382,0.301,0.545c-0.004-0.004-0.017,0.025-0.021,0.391c0,0.007,0.001,0.015,0.003,0.023
			c-0.087,2.023-0.003,4.039,0.548,4.947c0,0-0.788,1.127,13.881,3.382c0,0,0.374,0.063,0.846,0c0,0,4.003,0.004,4.354-0.226
			c0.511-0.333,1.555-0.428,1.827-2.332L22.317,28.313z M8.554,26.995c0.505-0.389,3.809-0.895,4.393-0.822
			c0.444,0.055,0.459,0.377,0.442,0.528l-0.129,0.022c-1.367,0.202-2.871,0.465-4.198,0.701l-0.629,0.104
			C8.333,27.059,8.554,26.995,8.554,26.995z M1.773,34.918l0.001,0.001c0,0.001,0,0.002,0,0.002L1.773,34.918z"/>
		<g>
			<path fill="#2F7B3C" d="M22.011,40.338l-0.796-11.379c0,0,0.036-1.004-1.141-1.522c0,0-3.701-0.485-4.219-0.069
				c-1.103,0.882,0.656,15.245,0.656,15.245s3.56,0.004,3.874-0.201C20.839,42.116,21.768,42.032,22.011,40.338z"/>
			<path fill="#33693A" d="M7.586,28.582c0,0-0.102-1.453,1.074-1.833c1.176-0.38,4.461-1.141,5.049-1.038
				c0.588,0.103,1.555,0.345,1.657,1.522l-2.107,0.362c0,0,0.139-0.476-0.38-0.539c-0.518-0.065-3.458,0.384-3.907,0.73
				c0,0-0.242,0.07-0.069,0.624L7.586,28.582z"/>
			<path fill="#2F8E47" d="M3.41,30.317c0,0-1.154,7.386,0,9.288c0,0-0.701,1.003,12.349,3.008c0,0,1.964,0.328,2.345-1.417
				l-0.352-12.209c0,0-0.139-2.006-2.413-1.799L4.774,28.987C4.774,28.987,3.724,29.328,3.41,30.317z"/>
			<path opacity="0.1" fill="#1C261D" d="M2.94,34.838c0,0-0.016-0.062-0.02,0.347c-0.004,0.406,4.323,2.54,15.048,0.586
				c0,0,0.023-0.851-0.094-1.09C17.756,34.441,2.94,34.838,2.94,34.838z"/>
			<path fill="#3EAA5C" d="M3.119,30.317c0,0-0.304,1.909-0.448,4.034c-0.14,2.057,13.866,1.848,15.085,0.522
				c0.783-0.853,0.189-4.558-0.011-5.885c-0.114-0.753-0.142-2.006-2.462-1.798L4.51,28.987C4.51,28.987,3.441,29.328,3.119,30.317z
				"/>
			<path opacity="0.05" fill="#1C261D" d="M16.826,27.347c0,0,0.639,0.162,0.783,0.902c0.144,0.739,1.002,5.541,0.148,6.624
				c0,0-0.774,0.73-4.455,0.999c-0.057,0.003-0.115,0.009-0.175,0.012c-3.832,0.258-6.407-0.166-7.45-0.257
				c-1.045-0.091-0.393-6.852,0.617-6.937C7.586,28.582,15.87,26.808,16.826,27.347z"/>
			<path fill="#33693A" d="M12.47,34.022c0,0-0.729,0.847-0.307,2.954c0.027,0.132,0.065,0.25,0.44,0.311
				c0.173,0.029,0.419,0.063,0.662-0.234c0.469-0.57,0.552-1.439,0.357-2.928C13.622,34.125,13.184,33.594,12.47,34.022z"/>
			<path fill="#33693A" d="M5.398,34.16c0,0-0.576,0.67-0.242,2.335c0.021,0.104,0.051,0.197,0.347,0.246
				c0.138,0.023,0.331,0.05,0.525-0.186c0.369-0.45,0.434-1.137,0.281-2.314C6.308,34.241,5.963,33.822,5.398,34.16z"/>
		</g>
	</g>
	<g>
		<path fill="#E7F3E8" d="M61.039,168.624c0,0,0.038-1.129-1.284-1.711c0,0-2.789-0.366-4.119-0.241
			c-0.316-0.062-0.703-0.081-1.179-0.043c-0.138-1.276-1.204-1.542-1.855-1.655c-0.661-0.119-4.354,0.737-5.677,1.165
			c-1.104,0.356-1.207,1.555-1.21,1.938l-3.454,0.577c0,0-1.203,0.385-1.564,1.494c0,0-0.342,2.148-0.505,4.535
			c-0.013,0.201,0.096,0.383,0.3,0.545c-0.004-0.002-0.016,0.025-0.02,0.391c0,0.01,0,0.016,0.002,0.025
			c-0.086,2.021-0.002,4.038,0.548,4.946c0,0-0.786,1.126,13.882,3.382c0,0,0.375,0.063,0.847-0.003c0,0,4.002,0.006,4.354-0.224
			c0.51-0.334,1.555-0.427,1.826-2.333L61.039,168.624z M47.277,167.304c0.505-0.387,3.809-0.893,4.392-0.82
			c0.444,0.054,0.46,0.375,0.443,0.526l-0.129,0.023c-1.368,0.199-2.871,0.464-4.199,0.701l-0.63,0.103
			C47.057,167.369,47.277,167.304,47.277,167.304z M40.495,175.229c0.001,0,0.001,0.002,0.001,0.002s0,0,0,0.003
			C40.496,175.231,40.496,175.231,40.495,175.229z"/>
		<g>
			<path fill="#2F7B3C" d="M60.735,180.648l-0.796-11.379c0,0,0.034-1.004-1.142-1.523c0,0-3.701-0.485-4.22-0.069
				c-1.102,0.883,0.657,15.247,0.657,15.247s3.56,0.003,3.874-0.201C59.562,182.429,60.492,182.345,60.735,180.648z"/>
			<path fill="#33693A" d="M46.31,168.892c0,0-0.102-1.452,1.074-1.831c1.175-0.381,4.461-1.142,5.048-1.039
				c0.589,0.103,1.557,0.346,1.657,1.523l-2.106,0.36c0,0,0.138-0.473-0.38-0.538c-0.518-0.065-3.458,0.385-3.907,0.73
				c0,0-0.243,0.071-0.069,0.624L46.31,168.892z"/>
			<path fill="#2F8E47" d="M42.133,170.628c0,0-1.155,7.385,0,9.289c0,0-0.7,1.004,12.348,3.009c0,0,1.964,0.326,2.345-1.419
				l-0.35-12.209c0,0-0.14-2.008-2.414-1.8l-10.565,1.8C43.496,169.298,42.447,169.639,42.133,170.628z"/>
			<path opacity="0.1" fill="#1C261D" d="M41.664,175.149c0,0-0.017-0.06-0.021,0.346c-0.004,0.408,4.323,2.542,15.048,0.588
				c0,0,0.023-0.853-0.094-1.092C56.48,174.752,41.664,175.149,41.664,175.149z"/>
			<path fill="#3EAA5C" d="M41.842,170.628c0,0-0.303,1.908-0.447,4.034c-0.14,2.057,13.866,1.847,15.085,0.524
				c0.783-0.855,0.188-4.56-0.011-5.887c-0.114-0.753-0.142-2.008-2.462-1.797l-10.773,1.797
				C43.234,169.298,42.164,169.639,41.842,170.628z"/>
			<path opacity="0.05" fill="#1C261D" d="M55.548,167.658c0,0,0.639,0.162,0.783,0.901c0.145,0.739,1.002,5.542,0.149,6.627
				c0,0-0.774,0.728-4.457,0.998c-0.056,0.002-0.114,0.008-0.173,0.011c-3.832,0.257-6.407-0.167-7.451-0.257
				c-1.044-0.089-0.393-6.852,0.617-6.937C46.31,168.892,54.594,167.12,55.548,167.658z"/>
			<path fill="#33693A" d="M51.192,174.333c0,0-0.729,0.847-0.306,2.956c0.027,0.13,0.064,0.248,0.438,0.31
				c0.174,0.029,0.419,0.063,0.663-0.235c0.469-0.57,0.551-1.439,0.358-2.929C52.346,174.434,51.908,173.905,51.192,174.333z"/>
			<path fill="#33693A" d="M44.12,174.471c0,0-0.575,0.67-0.241,2.335c0.02,0.103,0.051,0.197,0.347,0.247
				c0.136,0.021,0.33,0.048,0.524-0.188c0.37-0.448,0.435-1.136,0.281-2.312C45.031,174.553,44.685,174.131,44.12,174.471z"/>
		</g>
	</g>
	<g>
		<path fill="#E7F3E8" d="M155.757,10.198c0,0,0.04-1.126-1.283-1.711c0,0-2.79-0.366-4.119-0.241
			c-0.316-0.062-0.703-0.08-1.179-0.044c-0.138-1.273-1.204-1.541-1.855-1.654c-0.661-0.118-4.354,0.738-5.676,1.166
			c-1.105,0.356-1.207,1.554-1.21,1.939l-3.457,0.576c0,0-1.203,0.383-1.563,1.494c0,0-0.342,2.145-0.505,4.535
			c-0.013,0.2,0.096,0.381,0.3,0.545c-0.003-0.003-0.015,0.025-0.019,0.392c0,0.008,0,0.015,0.003,0.023
			c-0.088,2.022-0.003,4.038,0.549,4.946c0,0-0.788,1.127,13.88,3.383c0,0,0.375,0.063,0.847-0.001c0,0,4.004,0.004,4.355-0.226
			c0.508-0.332,1.553-0.427,1.826-2.332L155.757,10.198z M141.995,8.88c0.505-0.388,3.809-0.894,4.393-0.822
			c0.445,0.055,0.459,0.376,0.443,0.527l-0.129,0.022c-1.368,0.202-2.872,0.465-4.199,0.701l-0.63,0.104
			C141.775,8.944,141.995,8.88,141.995,8.88z M135.215,16.803v0.002c0,0.001,0,0.001,0,0.002
			C135.215,16.806,135.215,16.805,135.215,16.803z"/>
		<g>
			<path fill="#2F7B3C" d="M155.452,22.223l-0.796-11.379c0,0,0.036-1.004-1.14-1.522c0,0-3.702-0.485-4.219-0.069
				c-1.103,0.882,0.656,15.246,0.656,15.246s3.562,0.003,3.874-0.202C154.281,24.002,155.21,23.917,155.452,22.223z"/>
			<path fill="#33693A" d="M141.027,10.468c0,0-0.102-1.453,1.074-1.834c1.177-0.38,4.461-1.141,5.049-1.037
				c0.589,0.103,1.556,0.346,1.657,1.522l-2.106,0.362c0,0,0.138-0.475-0.38-0.539c-0.518-0.065-3.459,0.385-3.908,0.73
				c0,0-0.242,0.07-0.069,0.624L141.027,10.468z"/>
			<path fill="#2F8E47" d="M136.852,12.203c0,0-1.154,7.386,0,9.288c0,0-0.702,1.003,12.346,3.009c0,0,1.964,0.328,2.347-1.418
				l-0.352-12.209c0,0-0.14-2.006-2.413-1.8l-10.566,1.8C138.214,10.872,137.164,11.214,136.852,12.203z"/>
			<path opacity="0.1" fill="#1C261D" d="M136.382,16.724c0,0-0.017-0.061-0.02,0.347c-0.004,0.406,4.321,2.541,15.047,0.586
				c0,0,0.023-0.851-0.096-1.091C151.198,16.327,136.382,16.724,136.382,16.724z"/>
			<path fill="#3EAA5C" d="M136.559,12.203c0,0-0.301,1.908-0.446,4.034c-0.141,2.057,13.866,1.849,15.086,0.522
				c0.783-0.853,0.189-4.558-0.011-5.885c-0.114-0.753-0.143-2.006-2.462-1.798l-10.773,1.798
				C137.952,10.872,136.882,11.214,136.559,12.203z"/>
			<path opacity="0.05" fill="#1C261D" d="M150.266,9.232c0,0,0.64,0.162,0.783,0.902c0.144,0.739,1.003,5.541,0.149,6.624
				c0,0-0.774,0.731-4.457,0.999c-0.056,0.003-0.114,0.009-0.174,0.013c-3.832,0.257-6.408-0.167-7.45-0.256
				c-1.046-0.092-0.393-6.854,0.616-6.938C141.027,10.468,149.312,8.694,150.266,9.232z"/>
			<path fill="#33693A" d="M145.912,15.908c0,0-0.73,0.847-0.307,2.955c0.027,0.132,0.065,0.25,0.439,0.311
				c0.174,0.03,0.419,0.063,0.663-0.235c0.469-0.569,0.551-1.439,0.358-2.929C147.063,16.01,146.626,15.479,145.912,15.908z"/>
			<path fill="#33693A" d="M138.839,16.045c0,0-0.576,0.67-0.242,2.335c0.02,0.103,0.052,0.197,0.347,0.246
				c0.138,0.022,0.332,0.05,0.525-0.186c0.369-0.45,0.433-1.137,0.281-2.314C139.749,16.126,139.404,15.707,138.839,16.045z"/>
		</g>
	</g>
	<g>
		<path fill="#E7F3E8" d="M29.659,101.221c0,0,0.04-1.127-1.283-1.711c0,0-2.79-0.366-4.119-0.241
			c-0.316-0.061-0.703-0.08-1.179-0.043c-0.138-1.273-1.204-1.541-1.855-1.654c-0.661-0.118-4.354,0.738-5.676,1.166
			c-1.105,0.356-1.207,1.554-1.21,1.939l-3.457,0.576c0,0-1.203,0.384-1.563,1.495c0,0-0.342,2.145-0.505,4.534
			c-0.013,0.201,0.096,0.382,0.3,0.545c-0.003-0.003-0.015,0.024-0.019,0.391c0,0.009,0,0.016,0.003,0.024
			c-0.088,2.022-0.003,4.038,0.549,4.945c0,0-0.788,1.127,13.88,3.384c0,0,0.375,0.063,0.847-0.002c0,0,4.004,0.005,4.356-0.226
			c0.508-0.332,1.553-0.427,1.826-2.332L29.659,101.221z M15.896,99.903c0.505-0.388,3.809-0.894,4.393-0.822
			c0.445,0.054,0.459,0.375,0.443,0.526l-0.129,0.023c-1.368,0.202-2.872,0.465-4.199,0.701l-0.63,0.104
			C15.677,99.967,15.896,99.903,15.896,99.903z M9.116,107.827v0.002c0,0,0,0,0,0.002C9.116,107.829,9.116,107.829,9.116,107.827z"
			/>
		<g>
			<path fill="#2F7B3C" d="M29.354,113.247l-0.796-11.379c0,0,0.036-1.004-1.14-1.522c0,0-3.702-0.485-4.219-0.069
				c-1.103,0.882,0.656,15.245,0.656,15.245s3.562,0.003,3.874-0.201C28.182,115.025,29.111,114.94,29.354,113.247z"/>
			<path fill="#33693A" d="M14.929,101.491c0,0-0.103-1.453,1.074-1.833c1.177-0.38,4.461-1.14,5.048-1.038
				c0.589,0.104,1.556,0.346,1.657,1.522l-2.106,0.362c0,0,0.138-0.475-0.38-0.54c-0.518-0.064-3.459,0.386-3.908,0.731
				c0,0-0.242,0.069-0.069,0.624L14.929,101.491z"/>
			<path fill="#2F8E47" d="M10.753,103.226c0,0-1.154,7.386,0,9.288c0,0-0.702,1.004,12.347,3.01c0,0,1.964,0.327,2.347-1.419
				l-0.352-12.209c0,0-0.14-2.006-2.413-1.8l-10.566,1.8C12.116,101.895,11.066,102.238,10.753,103.226z"/>
			<path opacity="0.1" fill="#1C261D" d="M10.283,107.747c0,0-0.016-0.061-0.02,0.347c-0.004,0.405,4.321,2.54,15.047,0.585
				c0,0,0.023-0.851-0.096-1.091C25.1,107.35,10.283,107.747,10.283,107.747z"/>
			<path fill="#3EAA5C" d="M10.461,103.226c0,0-0.301,1.908-0.446,4.033c-0.141,2.058,13.866,1.849,15.086,0.522
				c0.783-0.853,0.188-4.558-0.011-5.886c-0.114-0.752-0.143-2.006-2.462-1.798l-10.773,1.798
				C11.854,101.895,10.784,102.238,10.461,103.226z"/>
			<path opacity="0.05" fill="#1C261D" d="M24.168,100.256c0,0,0.64,0.162,0.783,0.902c0.144,0.738,1.003,5.541,0.149,6.624
				c0,0-0.774,0.731-4.457,0.999c-0.056,0.003-0.114,0.01-0.174,0.013c-3.832,0.257-6.408-0.167-7.45-0.256
				c-1.046-0.093-0.393-6.853,0.616-6.938C14.929,101.491,23.214,99.717,24.168,100.256z"/>
			<path fill="#33693A" d="M19.813,106.931c0,0-0.73,0.848-0.307,2.955c0.027,0.132,0.065,0.25,0.439,0.311
				c0.174,0.03,0.42,0.063,0.663-0.235c0.469-0.569,0.551-1.438,0.358-2.929C20.965,107.033,20.527,106.503,19.813,106.931z"/>
			<path fill="#33693A" d="M12.74,107.068c0,0-0.576,0.67-0.242,2.336c0.02,0.103,0.052,0.196,0.346,0.245
				c0.138,0.023,0.332,0.05,0.525-0.186c0.369-0.45,0.433-1.137,0.281-2.314C13.651,107.15,13.306,106.731,12.74,107.068z"/>
		</g>
	</g>
	<g>
		<path fill="#E7F3E8" d="M166.812,65.091c0,0,0.04-1.127-1.283-1.711c0,0-2.79-0.366-4.119-0.241
			c-0.316-0.061-0.703-0.08-1.179-0.043c-0.138-1.273-1.204-1.541-1.855-1.655c-0.661-0.118-4.354,0.738-5.676,1.166
			c-1.105,0.356-1.207,1.554-1.21,1.939l-3.457,0.576c0,0-1.203,0.384-1.563,1.495c0,0-0.342,2.145-0.505,4.534
			c-0.013,0.201,0.096,0.382,0.3,0.545c-0.003-0.003-0.015,0.024-0.019,0.391c0,0.009,0,0.016,0.003,0.024
			c-0.088,2.022-0.003,4.038,0.549,4.945c0,0-0.788,1.127,13.88,3.384c0,0,0.375,0.063,0.847-0.002c0,0,4.004,0.005,4.355-0.226
			c0.508-0.332,1.553-0.427,1.826-2.332L166.812,65.091z M153.05,63.773c0.505-0.388,3.809-0.895,4.393-0.822
			c0.445,0.054,0.459,0.375,0.443,0.526l-0.129,0.023c-1.368,0.202-2.872,0.466-4.199,0.701l-0.63,0.104
			C152.831,63.837,153.05,63.773,153.05,63.773z M146.27,71.697v0.002c0,0,0,0,0,0.002C146.27,71.699,146.27,71.699,146.27,71.697z"
			/>
		<g>
			<path fill="#2F7B3C" d="M166.508,77.116l-0.796-11.379c0,0,0.036-1.004-1.14-1.522c0,0-3.702-0.485-4.219-0.069
				c-1.103,0.882,0.656,15.246,0.656,15.246s3.562,0.003,3.874-0.202C165.336,78.895,166.265,78.81,166.508,77.116z"/>
			<path fill="#33693A" d="M152.083,65.36c0,0-0.102-1.453,1.074-1.833c1.177-0.38,4.461-1.14,5.049-1.038
				c0.589,0.104,1.556,0.346,1.657,1.522l-2.106,0.362c0,0,0.138-0.475-0.38-0.54c-0.518-0.064-3.459,0.386-3.908,0.731
				c0,0-0.242,0.069-0.069,0.624L152.083,65.36z"/>
			<path fill="#2F8E47" d="M147.907,67.096c0,0-1.154,7.386,0,9.288c0,0-0.702,1.004,12.346,3.01c0,0,1.964,0.327,2.347-1.419
				l-0.352-12.209c0,0-0.14-2.006-2.413-1.799l-10.566,1.799C149.27,65.765,148.22,66.107,147.907,67.096z"/>
			<path opacity="0.1" fill="#1C261D" d="M147.437,71.617c0,0-0.017-0.061-0.02,0.347c-0.004,0.405,4.321,2.54,15.047,0.585
				c0,0,0.022-0.851-0.096-1.091C162.254,71.219,147.437,71.617,147.437,71.617z"/>
			<path fill="#3EAA5C" d="M147.614,67.096c0,0-0.301,1.908-0.446,4.033c-0.141,2.058,13.866,1.849,15.086,0.522
				c0.783-0.853,0.188-4.558-0.011-5.886c-0.114-0.752-0.143-2.006-2.462-1.798l-10.773,1.798
				C149.007,65.765,147.937,66.107,147.614,67.096z"/>
			<path opacity="0.05" fill="#1C261D" d="M161.322,64.126c0,0,0.64,0.161,0.783,0.901c0.144,0.738,1.003,5.541,0.149,6.624
				c0,0-0.774,0.731-4.457,0.999c-0.056,0.003-0.114,0.01-0.174,0.013c-3.832,0.257-6.408-0.167-7.45-0.256
				c-1.046-0.093-0.393-6.853,0.616-6.938C152.083,65.36,160.367,63.587,161.322,64.126z"/>
			<path fill="#33693A" d="M156.967,70.801c0,0-0.73,0.848-0.307,2.955c0.027,0.132,0.065,0.25,0.439,0.311
				c0.174,0.03,0.419,0.063,0.663-0.235c0.469-0.569,0.551-1.438,0.358-2.928C158.119,70.903,157.681,70.373,156.967,70.801z"/>
			<path fill="#33693A" d="M149.894,70.938c0,0-0.576,0.67-0.242,2.336c0.02,0.102,0.052,0.196,0.346,0.245
				c0.138,0.023,0.332,0.05,0.526-0.186c0.369-0.45,0.433-1.137,0.28-2.314C150.804,71.02,150.46,70.601,149.894,70.938z"/>
		</g>
	</g>
	<g>
		<path fill="#E7F3E8" d="M128.428,144.746c0,0,0.04-1.127-1.283-1.711c0,0-2.79-0.366-4.119-0.241
			c-0.316-0.061-0.703-0.08-1.179-0.043c-0.138-1.273-1.204-1.541-1.855-1.655c-0.661-0.118-4.354,0.738-5.676,1.166
			c-1.105,0.356-1.207,1.554-1.21,1.939l-3.457,0.576c0,0-1.203,0.384-1.563,1.495c0,0-0.342,2.145-0.505,4.534
			c-0.013,0.201,0.096,0.382,0.3,0.545c-0.003-0.003-0.015,0.024-0.019,0.391c0,0.009,0,0.016,0.003,0.024
			c-0.088,2.022-0.003,4.038,0.549,4.945c0,0-0.788,1.127,13.88,3.384c0,0,0.375,0.063,0.847-0.002c0,0,4.004,0.005,4.356-0.226
			c0.508-0.332,1.553-0.427,1.826-2.332L128.428,144.746z M114.666,143.428c0.505-0.388,3.809-0.895,4.393-0.822
			c0.445,0.054,0.459,0.375,0.443,0.526l-0.129,0.023c-1.368,0.202-2.872,0.466-4.199,0.701l-0.63,0.104
			C114.447,143.492,114.666,143.428,114.666,143.428z M107.886,151.352v0.002c0,0,0,0,0,0.002
			C107.886,151.354,107.886,151.354,107.886,151.352z"/>
		<g>
			<path fill="#2F7B3C" d="M128.124,156.771l-0.796-11.379c0,0,0.036-1.004-1.14-1.522c0,0-3.702-0.485-4.219-0.069
				c-1.103,0.882,0.656,15.246,0.656,15.246s3.562,0.003,3.874-0.202C126.952,158.55,127.881,158.465,128.124,156.771z"/>
			<path fill="#33693A" d="M113.699,145.016c0,0-0.102-1.453,1.074-1.833c1.177-0.38,4.461-1.14,5.048-1.038
				c0.589,0.104,1.556,0.346,1.657,1.522l-2.106,0.362c0,0,0.138-0.475-0.38-0.54c-0.518-0.064-3.459,0.386-3.908,0.731
				c0,0-0.242,0.069-0.069,0.624L113.699,145.016z"/>
			<path fill="#2F8E47" d="M109.523,146.751c0,0-1.154,7.386,0,9.288c0,0-0.702,1.004,12.346,3.01c0,0,1.964,0.327,2.347-1.419
				l-0.352-12.209c0,0-0.14-2.006-2.413-1.799l-10.566,1.799C110.886,145.42,109.836,145.762,109.523,146.751z"/>
			<path opacity="0.1" fill="#1C261D" d="M109.053,151.272c0,0-0.016-0.061-0.02,0.347c-0.004,0.405,4.321,2.54,15.047,0.585
				c0,0,0.023-0.851-0.096-1.091C123.87,150.874,109.053,151.272,109.053,151.272z"/>
			<path fill="#3EAA5C" d="M109.23,146.751c0,0-0.301,1.908-0.446,4.033c-0.141,2.058,13.866,1.849,15.086,0.522
				c0.782-0.853,0.188-4.558-0.011-5.886c-0.114-0.752-0.143-2.006-2.462-1.798l-10.773,1.798
				C110.624,145.42,109.554,145.762,109.23,146.751z"/>
			<path opacity="0.05" fill="#1C261D" d="M122.938,143.781c0,0,0.64,0.161,0.783,0.901c0.144,0.738,1.003,5.541,0.149,6.624
				c0,0-0.774,0.731-4.457,0.999c-0.056,0.003-0.114,0.01-0.174,0.013c-3.832,0.257-6.408-0.167-7.45-0.256
				c-1.046-0.093-0.393-6.853,0.616-6.938C113.699,145.016,121.983,143.242,122.938,143.781z"/>
			<path fill="#33693A" d="M118.583,150.456c0,0-0.73,0.848-0.307,2.955c0.027,0.132,0.065,0.25,0.439,0.311
				c0.174,0.03,0.42,0.063,0.663-0.235c0.469-0.569,0.551-1.438,0.358-2.928C119.735,150.558,119.297,150.028,118.583,150.456z"/>
			<path fill="#33693A" d="M111.51,150.593c0,0-0.576,0.67-0.242,2.336c0.02,0.102,0.052,0.196,0.347,0.245
				c0.138,0.023,0.332,0.05,0.525-0.186c0.369-0.45,0.433-1.137,0.28-2.314C112.42,150.675,112.076,150.256,111.51,150.593z"/>
		</g>
	</g>
	<g>
		<path fill="#E7F3E8" d="M80.682,34.631c0,0,0.038-1.127-1.284-1.711c0,0-2.79-0.365-4.12-0.241
			c-0.316-0.061-0.703-0.08-1.179-0.044c-0.138-1.273-1.203-1.541-1.855-1.655c-0.661-0.117-4.355,0.739-5.675,1.167
			c-1.106,0.357-1.208,1.555-1.212,1.939l-3.455,0.576c0,0-1.203,0.384-1.563,1.495c0,0-0.342,2.144-0.505,4.534
			c-0.013,0.2,0.095,0.382,0.301,0.545c-0.006-0.004-0.017,0.024-0.021,0.391c0,0.008,0,0.015,0.002,0.023
			c-0.085,2.022-0.002,4.039,0.548,4.946c0,0-0.786,1.128,13.881,3.382c0,0,0.376,0.063,0.847-0.001c0,0,4.002,0.004,4.353-0.225
			c0.512-0.334,1.556-0.428,1.827-2.332L80.682,34.631z M66.919,33.313c0.505-0.388,3.809-0.894,4.392-0.822
			c0.444,0.055,0.46,0.376,0.443,0.527l-0.129,0.022c-1.367,0.202-2.871,0.466-4.199,0.701l-0.628,0.105
			C66.698,33.377,66.919,33.313,66.919,33.313z M60.136,41.237c0.001,0,0.001,0,0.001,0c0,0.001,0,0.001,0,0.001
			S60.138,41.238,60.136,41.237z"/>
		<g>
			<path fill="#2F7B3C" d="M80.376,46.656L79.58,35.277c0,0,0.036-1.003-1.141-1.521c0,0-3.701-0.485-4.22-0.07
				c-1.102,0.882,0.657,15.245,0.657,15.245s3.561,0.004,3.875-0.201C79.204,48.434,80.133,48.35,80.376,46.656z"/>
			<path fill="#33693A" d="M65.951,34.901c0,0-0.103-1.453,1.073-1.833c1.176-0.38,4.462-1.141,5.05-1.037
				c0.588,0.103,1.556,0.345,1.656,1.522l-2.106,0.361c0,0,0.139-0.475-0.38-0.539c-0.518-0.065-3.458,0.385-3.907,0.73
				c0,0-0.243,0.071-0.069,0.624L65.951,34.901z"/>
			<path fill="#2F8E47" d="M61.774,36.635c0,0-1.154,7.387,0,9.289c0,0-0.7,1.002,12.347,3.008c0,0,1.964,0.328,2.345-1.417
				l-0.35-12.209c0,0-0.14-2.006-2.413-1.8l-10.566,1.8C63.138,35.306,62.089,35.647,61.774,36.635z"/>
			<path opacity="0.1" fill="#1C261D" d="M61.305,41.157c0,0-0.017-0.061-0.021,0.346c-0.004,0.406,4.323,2.541,15.047,0.587
				c0,0,0.022-0.852-0.095-1.091C76.121,40.759,61.305,41.157,61.305,41.157z"/>
			<path fill="#3EAA5C" d="M61.484,36.635c0,0-0.304,1.909-0.448,4.035c-0.14,2.057,13.866,1.847,15.085,0.522
				c0.783-0.853,0.188-4.559-0.011-5.886c-0.114-0.753-0.143-2.006-2.463-1.798l-10.773,1.798
				C62.875,35.306,61.806,35.647,61.484,36.635z"/>
			<path opacity="0.05" fill="#1C261D" d="M75.19,33.666c0,0,0.639,0.162,0.783,0.901c0.145,0.739,1.002,5.541,0.149,6.625
				c0,0-0.774,0.73-4.457,0.999c-0.056,0.004-0.114,0.008-0.173,0.011c-3.832,0.258-6.407-0.166-7.452-0.256
				c-1.044-0.092-0.392-6.853,0.617-6.937C65.951,34.901,74.236,33.127,75.19,33.666z"/>
			<path fill="#33693A" d="M70.834,40.34c0,0-0.729,0.847-0.306,2.955c0.027,0.133,0.065,0.251,0.438,0.312
				c0.175,0.028,0.419,0.063,0.664-0.235c0.469-0.569,0.55-1.439,0.357-2.929C71.987,40.443,71.549,39.912,70.834,40.34z"/>
			<path fill="#33693A" d="M63.763,40.478c0,0-0.576,0.67-0.243,2.335c0.02,0.104,0.051,0.197,0.347,0.245
				c0.137,0.023,0.33,0.05,0.524-0.185c0.37-0.45,0.435-1.137,0.282-2.314C64.673,40.559,64.326,40.14,63.763,40.478z"/>
		</g>
	</g>
	<g>
		<path fill="#E7F3E8" d="M159.932,128.57c0,0,0.04-1.126-1.283-1.711c0,0-2.79-0.364-4.118-0.24
			c-0.316-0.063-0.703-0.08-1.179-0.043c-0.138-1.272-1.205-1.542-1.854-1.655c-0.664-0.117-4.356,0.737-5.676,1.165
			c-1.106,0.358-1.207,1.556-1.212,1.94l-3.454,0.575c0,0-1.204,0.385-1.563,1.495c0,0-0.343,2.147-0.505,4.536
			c-0.014,0.199,0.096,0.381,0.3,0.546c-0.004-0.004-0.017,0.024-0.023,0.388c0,0.01,0.003,0.016,0.005,0.025
			c-0.088,2.021-0.005,4.038,0.547,4.946c0,0-0.788,1.129,13.882,3.384c0,0,0.375,0.061,0.847,0c0,0,4.001,0.003,4.355-0.228
			c0.509-0.333,1.555-0.427,1.826-2.333L159.932,128.57z M146.17,127.253c0.506-0.388,3.81-0.896,4.392-0.823
			c0.443,0.056,0.461,0.377,0.443,0.526l-0.129,0.023c-1.368,0.203-2.871,0.465-4.199,0.701l-0.63,0.103
			C145.951,127.318,146.17,127.253,146.17,127.253z M139.387,135.177c0.003,0,0.003,0,0.003,0v0.002
			C139.39,135.179,139.39,135.177,139.387,135.177z"/>
		<g>
			<path fill="#2F7B3C" d="M159.626,140.595l-0.794-11.378c0,0,0.033-1.004-1.141-1.521c0,0-3.703-0.485-4.221-0.071
				c-1.101,0.883,0.657,15.246,0.657,15.246s3.559,0.003,3.874-0.202C158.456,142.374,159.385,142.29,159.626,140.595z"/>
			<path fill="#33693A" d="M145.204,128.84c0,0-0.102-1.452,1.073-1.833c1.174-0.381,4.462-1.142,5.049-1.037
				c0.59,0.102,1.557,0.346,1.657,1.522l-2.106,0.362c0,0,0.138-0.475-0.38-0.54c-0.518-0.063-3.458,0.385-3.908,0.731
				c0,0-0.242,0.069-0.07,0.623L145.204,128.84z"/>
			<path fill="#2F8E47" d="M141.024,130.573c0,0-1.154,7.389,0,9.289c0,0-0.698,1.004,12.349,3.009c0,0,1.964,0.327,2.344-1.419
				l-0.348-12.208c0,0-0.14-2.005-2.416-1.799l-10.563,1.799C142.39,129.245,141.341,129.587,141.024,130.573z"/>
			<path opacity="0.1" fill="#1C261D" d="M140.557,135.096c0,0-0.017-0.062-0.023,0.345c-0.003,0.408,4.323,2.542,15.048,0.588
				c0,0,0.022-0.852-0.095-1.09C155.373,134.699,140.557,135.096,140.557,135.096z"/>
			<path fill="#3EAA5C" d="M140.734,130.573c0,0-0.301,1.91-0.445,4.037c-0.142,2.055,13.865,1.846,15.084,0.521
				c0.783-0.853,0.188-4.56-0.01-5.886c-0.114-0.755-0.142-2.005-2.462-1.799l-10.773,1.799
				C142.127,129.245,141.057,129.587,140.734,130.573z"/>
			<path opacity="0.05" fill="#1C261D" d="M154.442,127.604c0,0,0.638,0.163,0.783,0.901c0.145,0.741,1.001,5.542,0.149,6.627
				c0,0-0.774,0.73-4.456,0.998c-0.058,0.003-0.115,0.01-0.174,0.013c-3.832,0.257-6.408-0.167-7.452-0.258
				c-1.043-0.09-0.392-6.851,0.619-6.938C145.204,128.84,153.488,127.065,154.442,127.604z"/>
			<path fill="#33693A" d="M150.085,134.28c0,0-0.729,0.845-0.305,2.955c0.027,0.13,0.064,0.248,0.439,0.312
				c0.174,0.029,0.418,0.062,0.662-0.237c0.47-0.569,0.552-1.439,0.359-2.926C151.239,134.383,150.799,133.851,150.085,134.28z"/>
			<path fill="#33693A" d="M143.012,134.418c0,0-0.577,0.67-0.241,2.334c0.021,0.105,0.051,0.197,0.345,0.247
				c0.138,0.023,0.333,0.048,0.526-0.188c0.372-0.448,0.436-1.136,0.282-2.312C143.924,134.499,143.578,134.081,143.012,134.418z"/>
		</g>
	</g>
	<g>
		<polygon fill="#E7F3E8" points="117.019,99.431 96.994,81.97 96.898,81.947 96.898,79.571 97.686,79.571 97.686,77.255
			94.623,76.344 89.66,77.007 89.66,79.324 90.404,79.324 90.404,80.305 66.604,74.291 66.589,74.276 66.583,74.286 66.545,74.276
			66.572,74.304 51.144,99.954 52.754,99.954 52.798,99.954 55.952,99.954 55.951,99.936 57.828,125.137 88.389,136.28
			110.565,122.491 112.11,99.869 111.348,99.928 		"/>
		<g>
			<g>
				<g>
					<polygon fill="#3EAA5C" points="62.094,122.131 60.314,98.256 70.437,82.117 88.026,100.317 88.026,131.587 					"/>
				</g>
				<g>
					<polygon fill="#2F8E47" points="106.844,119.884 108.156,100.689 89.746,102.11 88.026,100.317 88.026,131.587 					"/>
				</g>
				<g>
					<polygon fill="#36783E" points="69.488,78.971 91.883,102.11 112.321,100.317 95.329,85.5 					"/>
				</g>
				<g>
					<polygon fill="#323328" points="89.735,85.43 89.735,83.254 89.103,83.254 89.103,81.287 93.315,80.725 93.315,82.481
						92.965,82.762 92.965,88.52 					"/>
				</g>
				<g>
					<polygon fill="#171714" points="95.914,81.498 95.914,83.464 95.248,83.464 95.248,88.52 92.965,88.52 92.965,82.762
						93.315,82.481 93.315,80.725 					"/>
				</g>
				<g>
					<polygon fill="#213F24" points="57.785,100.762 69.526,81.217 70.437,82.117 60.354,98.256 60.501,100.762 					"/>
				</g>
				<g>
					<polyline fill="#33693A" points="68.003,124.252 67.135,107.627 76.604,108.655 77.074,127.558 					"/>
				</g>
				<g opacity="0.3">
					<polygon fill="#161916" points="60.43,99.823 60.314,98.256 70.437,82.117 71.098,82.859 					"/>
				</g>
				<g opacity="0.2">
					<polyline fill="#20211F" points="88.026,103.642 88.063,100.317 89.746,102.11 108.156,100.689 108.102,101.451 					"/>
				</g>
				<g>
					<polygon fill="#33693A" points="56.42,100.762 69.526,78.971 91.921,102.11 89.746,102.11 69.526,81.217 57.823,100.762
						"/>
				</g>
				<g opacity="0.3">
					<path fill="#2C5A33" d="M100.154,89.708l12.168,10.609l-20.438,1.793L78.729,88.52C78.729,88.52,95.146,88.864,100.154,89.708z
						"/>
				</g>
			</g>
		</g>
	</g>
</g>
</svg>
