<?xml version="1.0" encoding="utf-8"?>
<!-- Generator: Adobe Illustrator 17.1.0, SVG Export Plug-In . SVG Version: 6.00 Build 0)  -->
<!DOCTYPE svg PUBLIC "-//W3C//DTD SVG 1.1//EN" "http://www.w3.org/Graphics/SVG/1.1/DTD/svg11.dtd">
<svg version="1.1" id="Layer_1" xmlns="http://www.w3.org/2000/svg" xmlns:xlink="http://www.w3.org/1999/xlink" x="0px" y="0px"
	 viewBox="0 12 170 188" enable-background="new 0 12 170 188" xml:space="preserve">
<g>
	<line fill="none" stroke="#E7F3E8" stroke-width="3" stroke-miterlimit="10" x1="75.7" y1="119.8" x2="12.2" y2="61.2"/>
	<line fill="none" stroke="#E7F3E8" stroke-width="3" stroke-miterlimit="10" x1="75.7" y1="119.8" x2="12.7" y2="151.6"/>
	<line fill="none" stroke="#E7F3E8" stroke-width="3" stroke-miterlimit="10" x1="74.9" y1="118" x2="43.8" y2="189"/>
	<line fill="none" stroke="#E7F3E8" stroke-width="3" stroke-miterlimit="10" x1="75.7" y1="119.8" x2="146.9" y2="117.8"/>
	<line fill="none" stroke="#E7F3E8" stroke-width="3" stroke-miterlimit="10" x1="115.2" y1="65.5" x2="75.7" y2="119.8"/>
	<line fill="none" stroke="#E7F3E8" stroke-width="3" stroke-miterlimit="10" x1="155" y1="78.7" x2="75.7" y2="119.8"/>
	<line fill="none" stroke="#E7F3E8" stroke-width="3" stroke-miterlimit="10" x1="111.6" y1="168.1" x2="75.7" y2="119.8"/>
	<line fill="none" stroke="#E7F3E8" stroke-width="3" stroke-miterlimit="10" x1="75.7" y1="119.8" x2="32.8" y2="28.6"/>
	<g>
		<path fill="#E7F3E8" d="M25.2,53.8c0,0,0-1.3-1.4-1.9c0,0-3.1-0.4-4.6-0.3c-0.4-0.1-0.8-0.1-1.3,0c-0.2-1.4-1.4-1.7-2.1-1.9
			c-0.7-0.1-4.9,0.8-6.4,1.3C8.1,51.4,8,52.7,8,53.2l-3.9,0.6c0,0-1.4,0.4-1.8,1.7c0,0-0.4,2.4-0.6,5.1c0,0.2,0.1,0.4,0.3,0.6
			c0,0,0,0,0,0.4c0,0,0,0,0,0c-0.1,2.3,0,4.5,0.6,5.6c0,0-0.9,1.3,15.6,3.8c0,0,0.4,0.1,1,0c0,0,4.5,0,4.9-0.3
			c0.6-0.4,1.7-0.5,2.1-2.6L25.2,53.8z M9.7,52.3c0.6-0.4,4.3-1,4.9-0.9c0.5,0.1,0.5,0.4,0.5,0.6L15,52c-1.5,0.2-3.2,0.5-4.7,0.8
			l-0.7,0.1C9.5,52.4,9.7,52.3,9.7,52.3z M2.1,61.2L2.1,61.2C2.1,61.2,2.1,61.2,2.1,61.2L2.1,61.2z"/>
		<g>
			<path fill="#2F7B3C" d="M24.9,67.3L24,54.5c0,0,0-1.1-1.3-1.7c0,0-4.2-0.5-4.7-0.1c-1.2,1,0.7,17.1,0.7,17.1s4,0,4.4-0.2
				C23.6,69.3,24.6,69.2,24.9,67.3z"/>
			<path fill="#33693A" d="M8.7,54.1c0,0-0.1-1.6,1.2-2.1c1.3-0.4,5-1.3,5.7-1.2c0.7,0.1,1.7,0.4,1.9,1.7L15,53c0,0,0.2-0.5-0.4-0.6
				c-0.6-0.1-3.9,0.4-4.4,0.8c0,0-0.3,0.1-0.1,0.7L8.7,54.1z"/>
			<path fill="#2F8E47" d="M4,56c0,0-1.3,8.3,0,10.4c0,0-0.8,1.1,13.9,3.4c0,0,2.2,0.4,2.6-1.6l-0.4-13.7c0,0-0.2-2.3-2.7-2l-11.9,2
				C5.5,54.5,4.3,54.9,4,56z"/>
			<path opacity="0.1" fill="#1C261D" enable-background="new    " d="M3.4,61.1c0,0,0-0.1,0,0.4c0,0.5,4.9,2.9,16.9,0.7
				c0,0,0-1-0.1-1.2S3.4,61.1,3.4,61.1z"/>
			<path fill="#3EAA5C" d="M3.6,56c0,0-0.3,2.1-0.5,4.5c-0.2,2.3,15.6,2.1,17,0.6c0.9-1,0.2-5.1,0-6.6c-0.1-0.8-0.2-2.3-2.8-2
				l-12.1,2C5.2,54.5,4,54.9,3.6,56z"/>
			<path opacity="5.000000e-002" fill="#1C261D" enable-background="new    " d="M19,52.7c0,0,0.7,0.2,0.9,1
				c0.2,0.8,1.1,6.2,0.2,7.4c0,0-0.9,0.8-5,1.1c-0.1,0-0.1,0-0.2,0c-4.3,0.3-7.2-0.2-8.4-0.3c-1.2-0.1-0.4-7.7,0.7-7.8
				C8.7,54.1,18,52.1,19,52.7z"/>
			<path fill="#33693A" d="M14.1,60.2c0,0-0.8,1-0.3,3.3c0,0.1,0.1,0.3,0.5,0.3c0.2,0,0.5,0.1,0.7-0.3c0.5-0.6,0.6-1.6,0.4-3.3
				C15.4,60.3,14.9,59.7,14.1,60.2z"/>
			<path fill="#33693A" d="M6.2,60.4c0,0-0.6,0.8-0.3,2.6c0,0.1,0.1,0.2,0.4,0.3c0.2,0,0.4,0.1,0.6-0.2c0.4-0.5,0.5-1.3,0.3-2.6
				C7.2,60.4,6.8,60,6.2,60.4z"/>
		</g>
	</g>
	<g>
		<path fill="#E7F3E8" d="M57.6,180.4c0,0,0-1.3-1.4-1.9c0,0-3.1-0.4-4.6-0.3c-0.4-0.1-0.8-0.1-1.3,0c-0.2-1.4-1.4-1.7-2.1-1.9
			c-0.7-0.1-4.9,0.8-6.4,1.3c-1.2,0.4-1.4,1.7-1.4,2.2l-3.9,0.6c0,0-1.4,0.4-1.8,1.7c0,0-0.4,2.4-0.6,5.1c0,0.2,0.1,0.4,0.3,0.6
			c0,0,0,0,0,0.4c0,0,0,0,0,0c-0.1,2.3,0,4.5,0.6,5.6c0,0-0.9,1.3,15.6,3.8c0,0,0.4,0.1,1,0c0,0,4.5,0,4.9-0.3
			c0.6-0.4,1.7-0.5,2.1-2.6L57.6,180.4z M42.1,179c0.6-0.4,4.3-1,4.9-0.9c0.5,0.1,0.5,0.4,0.5,0.6l-0.1,0c-1.5,0.2-3.2,0.5-4.7,0.8
			l-0.7,0.1C41.9,179,42.1,179,42.1,179z M34.5,187.9C34.5,187.9,34.5,187.9,34.5,187.9C34.5,187.9,34.5,187.9,34.5,187.9
			C34.5,187.9,34.5,187.9,34.5,187.9z"/>
		<g>
			<path fill="#2F7B3C" d="M57.3,194l-0.9-12.8c0,0,0-1.1-1.3-1.7c0,0-4.2-0.5-4.7-0.1c-1.2,1,0.7,17.1,0.7,17.1s4,0,4.4-0.2
				C56,196,57,195.9,57.3,194z"/>
			<path fill="#33693A" d="M41.1,180.7c0,0-0.1-1.6,1.2-2.1c1.3-0.4,5-1.3,5.7-1.2c0.7,0.1,1.8,0.4,1.9,1.7l-2.4,0.4
				c0,0,0.2-0.5-0.4-0.6s-3.9,0.4-4.4,0.8c0,0-0.3,0.1-0.1,0.7L41.1,180.7z"/>
			<path fill="#2F8E47" d="M36.4,182.7c0,0-1.3,8.3,0,10.4c0,0-0.8,1.1,13.9,3.4c0,0,2.2,0.4,2.6-1.6l-0.4-13.7c0,0-0.2-2.3-2.7-2
				l-11.9,2C37.9,181.2,36.7,181.6,36.4,182.7z"/>
			<path opacity="0.1" fill="#1C261D" enable-background="new    " d="M35.8,187.8c0,0,0-0.1,0,0.4c0,0.5,4.9,2.9,16.9,0.7
				c0,0,0-1-0.1-1.2C52.5,187.3,35.8,187.8,35.8,187.8z"/>
			<path fill="#3EAA5C" d="M36,182.7c0,0-0.3,2.1-0.5,4.5c-0.2,2.3,15.6,2.1,17,0.6c0.9-1,0.2-5.1,0-6.6c-0.1-0.8-0.2-2.3-2.8-2
				l-12.1,2C37.6,181.2,36.4,181.6,36,182.7z"/>
			<path opacity="5.000000e-002" fill="#1C261D" enable-background="new    " d="M51.4,179.4c0,0,0.7,0.2,0.9,1
				c0.2,0.8,1.1,6.2,0.2,7.5c0,0-0.9,0.8-5,1.1c-0.1,0-0.1,0-0.2,0c-4.3,0.3-7.2-0.2-8.4-0.3c-1.2-0.1-0.4-7.7,0.7-7.8
				C41.1,180.7,50.4,178.7,51.4,179.4z"/>
			<path fill="#33693A" d="M46.5,186.9c0,0-0.8,1-0.3,3.3c0,0.1,0.1,0.3,0.5,0.3c0.2,0,0.5,0.1,0.7-0.3c0.5-0.6,0.6-1.6,0.4-3.3
				C47.8,187,47.4,186.4,46.5,186.9z"/>
			<path fill="#33693A" d="M38.6,187c0,0-0.6,0.8-0.3,2.6c0,0.1,0.1,0.2,0.4,0.3c0.2,0,0.4,0.1,0.6-0.2c0.4-0.5,0.5-1.3,0.3-2.6
				C39.6,187.1,39.2,186.6,38.6,187z"/>
		</g>
	</g>
	<g>
		<path fill="#E7F3E8" d="M129.4,57.5c0,0,0-1.3-1.4-1.9c0,0-3.1-0.4-4.6-0.3c-0.4-0.1-0.8-0.1-1.3,0c-0.2-1.4-1.4-1.7-2.1-1.9
			c-0.7-0.1-4.9,0.8-6.4,1.3c-1.2,0.4-1.4,1.7-1.4,2.2l-3.9,0.6c0,0-1.4,0.4-1.8,1.7c0,0-0.4,2.4-0.6,5.1c0,0.2,0.1,0.4,0.3,0.6
			c0,0,0,0,0,0.4c0,0,0,0,0,0c-0.1,2.3,0,4.5,0.6,5.6c0,0-0.9,1.3,15.6,3.8c0,0,0.4,0.1,1,0c0,0,4.5,0,4.9-0.3
			c0.6-0.4,1.7-0.5,2.1-2.6L129.4,57.5z M113.9,56c0.6-0.4,4.3-1,4.9-0.9c0.5,0.1,0.5,0.4,0.5,0.6l-0.1,0c-1.5,0.2-3.2,0.5-4.7,0.8
			l-0.7,0.1C113.7,56.1,113.9,56,113.9,56z M106.3,65L106.3,65C106.3,65,106.3,65,106.3,65C106.3,65,106.3,65,106.3,65z"/>
		<g>
			<path fill="#2F7B3C" d="M129,71.1l-0.9-12.8c0,0,0-1.1-1.3-1.7c0,0-4.2-0.5-4.7-0.1c-1.2,1,0.7,17.1,0.7,17.1s4,0,4.4-0.2
				C127.7,73.1,128.8,73,129,71.1z"/>
			<path fill="#33693A" d="M112.8,57.8c0,0-0.1-1.6,1.2-2.1c1.3-0.4,5-1.3,5.7-1.2c0.7,0.1,1.8,0.4,1.9,1.7l-2.4,0.4
				c0,0,0.2-0.5-0.4-0.6c-0.6-0.1-3.9,0.4-4.4,0.8c0,0-0.3,0.1-0.1,0.7L112.8,57.8z"/>
			<path fill="#2F8E47" d="M108.1,59.8c0,0-1.3,8.3,0,10.4c0,0-0.8,1.1,13.9,3.4c0,0,2.2,0.4,2.6-1.6l-0.4-13.7c0,0-0.2-2.3-2.7-2
				l-11.9,2C109.7,58.3,108.5,58.7,108.1,59.8z"/>
			<path opacity="0.1" fill="#1C261D" enable-background="new    " d="M107.6,64.9c0,0,0-0.1,0,0.4c0,0.5,4.9,2.9,16.9,0.7
				c0,0,0-1-0.1-1.2C124.3,64.4,107.6,64.9,107.6,64.9z"/>
			<path fill="#3EAA5C" d="M107.8,59.8c0,0-0.3,2.1-0.5,4.5c-0.2,2.3,15.6,2.1,17,0.6c0.9-1,0.2-5.1,0-6.6c-0.1-0.8-0.2-2.3-2.8-2
				l-12.1,2C109.4,58.3,108.2,58.7,107.8,59.8z"/>
			<path opacity="5.000000e-002" fill="#1C261D" enable-background="new    " d="M123.2,56.4c0,0,0.7,0.2,0.9,1
				c0.2,0.8,1.1,6.2,0.2,7.4c0,0-0.9,0.8-5,1.1c-0.1,0-0.1,0-0.2,0c-4.3,0.3-7.2-0.2-8.4-0.3c-1.2-0.1-0.4-7.7,0.7-7.8
				C112.8,57.8,122.1,55.8,123.2,56.4z"/>
			<path fill="#33693A" d="M118.3,64c0,0-0.8,1-0.3,3.3c0,0.1,0.1,0.3,0.5,0.3c0.2,0,0.5,0.1,0.7-0.3c0.5-0.6,0.6-1.6,0.4-3.3
				C119.6,64.1,119.1,63.5,118.3,64z"/>
			<path fill="#33693A" d="M110.4,64.1c0,0-0.6,0.8-0.3,2.6c0,0.1,0.1,0.2,0.4,0.3c0.2,0,0.4,0.1,0.6-0.2c0.4-0.5,0.5-1.3,0.3-2.6
				C111.4,64.2,111,63.7,110.4,64.1z"/>
		</g>
	</g>
	<g>
		<path fill="#E7F3E8" d="M26.8,143.5c0,0,0-1.3-1.4-1.9c0,0-3.1-0.4-4.6-0.3c-0.4-0.1-0.8-0.1-1.3,0c-0.2-1.4-1.4-1.7-2.1-1.9
			c-0.7-0.1-4.9,0.8-6.4,1.3c-1.2,0.4-1.4,1.7-1.4,2.2l-3.9,0.6c0,0-1.4,0.4-1.8,1.7c0,0-0.4,2.4-0.6,5.1c0,0.2,0.1,0.4,0.3,0.6
			c0,0,0,0,0,0.4c0,0,0,0,0,0c-0.1,2.3,0,4.5,0.6,5.6c0,0-0.9,1.3,15.6,3.8c0,0,0.4,0.1,1,0c0,0,4.5,0,4.9-0.3
			c0.6-0.4,1.7-0.5,2.1-2.6L26.8,143.5z M11.3,142c0.6-0.4,4.3-1,4.9-0.9c0.5,0.1,0.5,0.4,0.5,0.6l-0.1,0c-1.5,0.2-3.2,0.5-4.7,0.8
			l-0.7,0.1C11,142.1,11.3,142,11.3,142z M3.7,150.9L3.7,150.9C3.7,150.9,3.7,150.9,3.7,150.9C3.7,150.9,3.7,150.9,3.7,150.9z"/>
		<g>
			<path fill="#2F7B3C" d="M26.4,157l-0.9-12.8c0,0,0-1.1-1.3-1.7c0,0-4.2-0.5-4.7-0.1c-1.2,1,0.7,17.1,0.7,17.1s4,0,4.4-0.2
				C25.1,159,26.2,158.9,26.4,157z"/>
			<path fill="#33693A" d="M10.2,143.8c0,0-0.1-1.6,1.2-2.1c1.3-0.4,5-1.3,5.7-1.2c0.7,0.1,1.8,0.4,1.9,1.7l-2.4,0.4
				c0,0,0.2-0.5-0.4-0.6c-0.6-0.1-3.9,0.4-4.4,0.8c0,0-0.3,0.1-0.1,0.7L10.2,143.8z"/>
			<path fill="#2F8E47" d="M5.5,145.7c0,0-1.3,8.3,0,10.4c0,0-0.8,1.1,13.9,3.4c0,0,2.2,0.4,2.6-1.6l-0.4-13.7c0,0-0.2-2.3-2.7-2
				l-11.9,2C7,144.2,5.9,144.6,5.5,145.7z"/>
			<path opacity="0.1" fill="#1C261D" enable-background="new    " d="M5,150.8c0,0,0-0.1,0,0.4c0,0.5,4.9,2.9,16.9,0.7
				c0,0,0-1-0.1-1.2C21.6,150.4,5,150.8,5,150.8z"/>
			<path fill="#3EAA5C" d="M5.2,145.7c0,0-0.3,2.1-0.5,4.5c-0.2,2.3,15.6,2.1,17,0.6c0.9-1,0.2-5.1,0-6.6c-0.1-0.8-0.2-2.3-2.8-2
				l-12.1,2C6.7,144.2,5.5,144.6,5.2,145.7z"/>
			<path opacity="5.000000e-002" fill="#1C261D" enable-background="new    " d="M20.6,142.4c0,0,0.7,0.2,0.9,1
				c0.2,0.8,1.1,6.2,0.2,7.4c0,0-0.9,0.8-5,1.1c-0.1,0-0.1,0-0.2,0c-4.3,0.3-7.2-0.2-8.4-0.3c-1.2-0.1-0.4-7.7,0.7-7.8
				C10.2,143.8,19.5,141.8,20.6,142.4z"/>
			<path fill="#33693A" d="M15.7,149.9c0,0-0.8,1-0.3,3.3c0,0.1,0.1,0.3,0.5,0.4c0.2,0,0.5,0.1,0.7-0.3c0.5-0.6,0.6-1.6,0.4-3.3
				C17,150,16.5,149.4,15.7,149.9z"/>
			<path fill="#33693A" d="M7.7,150c0,0-0.6,0.8-0.3,2.6c0,0.1,0.1,0.2,0.4,0.3c0.2,0,0.4,0.1,0.6-0.2c0.4-0.5,0.5-1.3,0.3-2.6
				C8.8,150.1,8.4,149.7,7.7,150z"/>
		</g>
	</g>
	<g>
		<path fill="#E7F3E8" d="M169,70.3c0,0,0-1.3-1.4-1.9c0,0-3.1-0.4-4.6-0.3c-0.4-0.1-0.8-0.1-1.3,0c-0.2-1.4-1.4-1.7-2.1-1.9
			c-0.7-0.1-4.9,0.8-6.4,1.3c-1.2,0.4-1.4,1.7-1.4,2.2l-3.9,0.6c0,0-1.4,0.4-1.8,1.7c0,0-0.4,2.4-0.6,5.1c0,0.2,0.1,0.4,0.3,0.6
			c0,0,0,0,0,0.4c0,0,0,0,0,0c-0.1,2.3,0,4.5,0.6,5.6c0,0-0.9,1.3,15.6,3.8c0,0,0.4,0.1,1,0c0,0,4.5,0,4.9-0.3
			c0.6-0.4,1.7-0.5,2.1-2.6L169,70.3z M153.5,68.8c0.6-0.4,4.3-1,4.9-0.9c0.5,0.1,0.5,0.4,0.5,0.6l-0.1,0c-1.5,0.2-3.2,0.5-4.7,0.8
			l-0.7,0.1C153.3,68.9,153.5,68.8,153.5,68.8z M145.9,77.7L145.9,77.7C145.9,77.7,145.9,77.7,145.9,77.7
			C145.9,77.7,145.9,77.7,145.9,77.7z"/>
		<g>
			<path fill="#2F7B3C" d="M168.7,83.8L167.8,71c0,0,0-1.1-1.3-1.7c0,0-4.2-0.5-4.7-0.1c-1.2,1,0.7,17.1,0.7,17.1s4,0,4.4-0.2
				C167.3,85.8,168.4,85.7,168.7,83.8z"/>
			<path fill="#33693A" d="M152.4,70.6c0,0-0.1-1.6,1.2-2.1c1.3-0.4,5-1.3,5.7-1.2c0.7,0.1,1.8,0.4,1.9,1.7l-2.4,0.4
				c0,0,0.2-0.5-0.4-0.6c-0.6-0.1-3.9,0.4-4.4,0.8c0,0-0.3,0.1-0.1,0.7L152.4,70.6z"/>
			<path fill="#2F8E47" d="M147.7,72.6c0,0-1.3,8.3,0,10.4c0,0-0.8,1.1,13.9,3.4c0,0,2.2,0.4,2.6-1.6l-0.4-13.7c0,0-0.2-2.3-2.7-2
				l-11.9,2C149.3,71.1,148.1,71.4,147.7,72.6z"/>
			<path opacity="0.1" fill="#1C261D" enable-background="new    " d="M147.2,77.6c0,0,0-0.1,0,0.4c0,0.5,4.9,2.9,16.9,0.7
				c0,0,0-1-0.1-1.2C163.9,77.2,147.2,77.6,147.2,77.6z"/>
			<path fill="#3EAA5C" d="M147.4,72.6c0,0-0.3,2.1-0.5,4.5c-0.2,2.3,15.6,2.1,17,0.6c0.9-1,0.2-5.1,0-6.6c-0.1-0.8-0.2-2.3-2.8-2
				l-12.1,2C149,71.1,147.8,71.4,147.4,72.6z"/>
			<path opacity="5.000000e-002" fill="#1C261D" enable-background="new    " d="M162.8,69.2c0,0,0.7,0.2,0.9,1
				c0.2,0.8,1.1,6.2,0.2,7.4c0,0-0.9,0.8-5,1.1c-0.1,0-0.1,0-0.2,0c-4.3,0.3-7.2-0.2-8.4-0.3c-1.2-0.1-0.4-7.7,0.7-7.8
				C152.4,70.6,161.7,68.6,162.8,69.2z"/>
			<path fill="#33693A" d="M157.9,76.7c0,0-0.8,1-0.3,3.3c0,0.1,0.1,0.3,0.5,0.3c0.2,0,0.5,0.1,0.7-0.3c0.5-0.6,0.6-1.6,0.4-3.3
				C159.2,76.8,158.7,76.2,157.9,76.7z"/>
			<path fill="#33693A" d="M150,76.9c0,0-0.6,0.8-0.3,2.6c0,0.1,0.1,0.2,0.4,0.3c0.2,0,0.4,0.1,0.6-0.2c0.4-0.5,0.5-1.3,0.3-2.6
				C151,77,150.6,76.5,150,76.9z"/>
		</g>
	</g>
	<g>
		<path fill="#E7F3E8" d="M125.8,159.9c0,0,0-1.3-1.4-1.9c0,0-3.1-0.4-4.6-0.3c-0.4-0.1-0.8-0.1-1.3,0c-0.2-1.4-1.4-1.7-2.1-1.9
			c-0.7-0.1-4.9,0.8-6.4,1.3c-1.2,0.4-1.4,1.7-1.4,2.2l-3.9,0.6c0,0-1.4,0.4-1.8,1.7c0,0-0.4,2.4-0.6,5.1c0,0.2,0.1,0.4,0.3,0.6
			c0,0,0,0,0,0.4c0,0,0,0,0,0c-0.1,2.3,0,4.5,0.6,5.6c0,0-0.9,1.3,15.6,3.8c0,0,0.4,0.1,1,0c0,0,4.5,0,4.9-0.3
			c0.6-0.4,1.7-0.5,2.1-2.6L125.8,159.9z M110.4,158.4c0.6-0.4,4.3-1,4.9-0.9c0.5,0.1,0.5,0.4,0.5,0.6l-0.1,0
			c-1.5,0.2-3.2,0.5-4.7,0.8l-0.7,0.1C110.1,158.5,110.4,158.4,110.4,158.4z M102.7,167.3L102.7,167.3
			C102.7,167.3,102.7,167.3,102.7,167.3C102.7,167.3,102.7,167.3,102.7,167.3z"/>
		<g>
			<path fill="#2F7B3C" d="M125.5,173.4l-0.9-12.8c0,0,0-1.1-1.3-1.7c0,0-4.2-0.5-4.7-0.1c-1.2,1,0.7,17.1,0.7,17.1s4,0,4.4-0.2
				C124.2,175.4,125.2,175.3,125.5,173.4z"/>
			<path fill="#33693A" d="M109.3,160.2c0,0-0.1-1.6,1.2-2.1c1.3-0.4,5-1.3,5.7-1.2c0.7,0.1,1.8,0.4,1.9,1.7l-2.4,0.4
				c0,0,0.2-0.5-0.4-0.6c-0.6-0.1-3.9,0.4-4.4,0.8c0,0-0.3,0.1-0.1,0.7L109.3,160.2z"/>
			<path fill="#2F8E47" d="M104.6,162.1c0,0-1.3,8.3,0,10.4c0,0-0.8,1.1,13.9,3.4c0,0,2.2,0.4,2.6-1.6l-0.4-13.7c0,0-0.2-2.3-2.7-2
				l-11.9,2C106.1,160.6,104.9,161,104.6,162.1z"/>
			<path opacity="0.1" fill="#1C261D" enable-background="new    " d="M104,167.2c0,0,0-0.1,0,0.4c0,0.5,4.9,2.9,16.9,0.7
				c0,0,0-1-0.1-1.2C120.7,166.8,104,167.2,104,167.2z"/>
			<path fill="#3EAA5C" d="M104.2,162.1c0,0-0.3,2.1-0.5,4.5c-0.2,2.3,15.6,2.1,17,0.6c0.9-1,0.2-5.1,0-6.6c-0.1-0.8-0.2-2.3-2.8-2
				l-12.1,2C105.8,160.6,104.6,161,104.2,162.1z"/>
			<path opacity="5.000000e-002" fill="#1C261D" enable-background="new    " d="M119.7,158.8c0,0,0.7,0.2,0.9,1
				c0.2,0.8,1.1,6.2,0.2,7.4c0,0-0.9,0.8-5,1.1c-0.1,0-0.1,0-0.2,0c-4.3,0.3-7.2-0.2-8.4-0.3c-1.2-0.1-0.4-7.7,0.7-7.8
				C109.3,160.2,118.6,158.2,119.7,158.8z"/>
			<path fill="#33693A" d="M114.8,166.3c0,0-0.8,1-0.3,3.3c0,0.1,0.1,0.3,0.5,0.4c0.2,0,0.5,0.1,0.7-0.3c0.5-0.6,0.6-1.6,0.4-3.3
				C116.1,166.4,115.6,165.8,114.8,166.3z"/>
			<path fill="#33693A" d="M106.8,166.4c0,0-0.6,0.8-0.3,2.6c0,0.1,0.1,0.2,0.4,0.3c0.2,0,0.4,0.1,0.6-0.2c0.4-0.5,0.5-1.3,0.3-2.6
				C107.8,166.5,107.4,166.1,106.8,166.4z"/>
		</g>
	</g>
	<g>
		<path fill="#E7F3E8" d="M41.8,17.8c0,0,0-1.3-1.4-1.9c0,0-3.1-0.4-4.6-0.3c-0.4-0.1-0.8-0.1-1.3,0c-0.2-1.4-1.4-1.7-2.1-1.9
			c-0.7-0.1-4.9,0.8-6.4,1.3c-1.2,0.4-1.4,1.7-1.4,2.2l-3.9,0.6c0,0-1.4,0.4-1.8,1.7c0,0-0.4,2.4-0.6,5.1c0,0.2,0.1,0.4,0.3,0.6
			c0,0,0,0,0,0.4c0,0,0,0,0,0c-0.1,2.3,0,4.5,0.6,5.6c0,0-0.9,1.3,15.6,3.8c0,0,0.4,0.1,1,0c0,0,4.5,0,4.9-0.3
			c0.6-0.4,1.8-0.5,2.1-2.6L41.8,17.8z M26.3,16.4c0.6-0.4,4.3-1,4.9-0.9c0.5,0.1,0.5,0.4,0.5,0.6l-0.1,0c-1.5,0.2-3.2,0.5-4.7,0.8
			L26.2,17C26.1,16.4,26.3,16.4,26.3,16.4z M18.7,25.3C18.7,25.3,18.7,25.3,18.7,25.3C18.7,25.3,18.7,25.3,18.7,25.3
			C18.7,25.3,18.7,25.3,18.7,25.3z"/>
		<g>
			<path fill="#2F7B3C" d="M41.4,31.4l-0.9-12.8c0,0,0-1.1-1.3-1.7c0,0-4.2-0.5-4.7-0.1c-1.2,1,0.7,17.1,0.7,17.1s4,0,4.4-0.2
				C40.1,33.4,41.2,33.3,41.4,31.4z"/>
			<path fill="#33693A" d="M25.2,18.1c0,0-0.1-1.6,1.2-2.1c1.3-0.4,5-1.3,5.7-1.2c0.7,0.1,1.8,0.4,1.9,1.7L31.6,17
				c0,0,0.2-0.5-0.4-0.6c-0.6-0.1-3.9,0.4-4.4,0.8c0,0-0.3,0.1-0.1,0.7L25.2,18.1z"/>
			<path fill="#2F8E47" d="M20.5,20.1c0,0-1.3,8.3,0,10.4c0,0-0.8,1.1,13.9,3.4c0,0,2.2,0.4,2.6-1.6l-0.4-13.7c0,0-0.2-2.3-2.7-2
				l-11.9,2C22.1,18.6,20.9,19,20.5,20.1z"/>
			<path opacity="0.1" fill="#1C261D" enable-background="new    " d="M20,25.2c0,0,0-0.1,0,0.4c0,0.5,4.9,2.9,16.9,0.7
				c0,0,0-1-0.1-1.2C36.7,24.7,20,25.2,20,25.2z"/>
			<path fill="#3EAA5C" d="M20.2,20.1c0,0-0.3,2.1-0.5,4.5c-0.2,2.3,15.6,2.1,17,0.6c0.9-1,0.2-5.1,0-6.6c-0.1-0.8-0.2-2.3-2.8-2
				l-12.1,2C21.8,18.6,20.6,19,20.2,20.1z"/>
			<path opacity="5.000000e-002" fill="#1C261D" enable-background="new    " d="M35.6,16.7c0,0,0.7,0.2,0.9,1
				c0.2,0.8,1.1,6.2,0.2,7.4c0,0-0.9,0.8-5,1.1c-0.1,0-0.1,0-0.2,0c-4.3,0.3-7.2-0.2-8.4-0.3c-1.2-0.1-0.4-7.7,0.7-7.8
				C25.2,18.1,34.5,16.1,35.6,16.7z"/>
			<path fill="#33693A" d="M30.7,24.3c0,0-0.8,1-0.3,3.3c0,0.1,0.1,0.3,0.5,0.4c0.2,0,0.5,0.1,0.7-0.3c0.5-0.6,0.6-1.6,0.4-3.3
				C32,24.4,31.5,23.8,30.7,24.3z"/>
			<path fill="#33693A" d="M22.8,24.4c0,0-0.6,0.8-0.3,2.6c0,0.1,0.1,0.2,0.4,0.3c0.2,0,0.4,0.1,0.6-0.2c0.4-0.5,0.5-1.3,0.3-2.6
				C23.8,24.5,23.4,24,22.8,24.4z"/>
		</g>
	</g>
	<g>
		<path fill="#E7F3E8" d="M160.8,110.7c0,0,0-1.3-1.4-1.9c0,0-3.1-0.4-4.6-0.3c-0.4-0.1-0.8-0.1-1.3,0c-0.2-1.4-1.4-1.7-2.1-1.9
			c-0.7-0.1-4.9,0.8-6.4,1.3c-1.2,0.4-1.4,1.7-1.4,2.2l-3.9,0.6c0,0-1.4,0.4-1.8,1.7c0,0-0.4,2.4-0.6,5.1c0,0.2,0.1,0.4,0.3,0.6
			c0,0,0,0,0,0.4c0,0,0,0,0,0c-0.1,2.3,0,4.5,0.6,5.6c0,0-0.9,1.3,15.6,3.8c0,0,0.4,0.1,1,0c0,0,4.5,0,4.9-0.3
			c0.6-0.4,1.7-0.5,2.1-2.6L160.8,110.7z M145.3,109.2c0.6-0.4,4.3-1,4.9-0.9c0.5,0.1,0.5,0.4,0.5,0.6l-0.1,0
			c-1.5,0.2-3.2,0.5-4.7,0.8l-0.7,0.1C145.1,109.3,145.3,109.2,145.3,109.2z M137.7,118.1C137.7,118.1,137.7,118.1,137.7,118.1
			L137.7,118.1C137.7,118.1,137.7,118.1,137.7,118.1z"/>
		<g>
			<path fill="#2F7B3C" d="M160.5,124.2l-0.9-12.8c0,0,0-1.1-1.3-1.7c0,0-4.2-0.5-4.7-0.1c-1.2,1,0.7,17.1,0.7,17.1s4,0,4.4-0.2
				C159.1,126.2,160.2,126.1,160.5,124.2z"/>
			<path fill="#33693A" d="M144.2,111c0,0-0.1-1.6,1.2-2.1c1.3-0.4,5-1.3,5.7-1.2c0.7,0.1,1.8,0.4,1.9,1.7l-2.4,0.4
				c0,0,0.2-0.5-0.4-0.6c-0.6-0.1-3.9,0.4-4.4,0.8c0,0-0.3,0.1-0.1,0.7L144.2,111z"/>
			<path fill="#2F8E47" d="M139.5,112.9c0,0-1.3,8.3,0,10.4c0,0-0.8,1.1,13.9,3.4c0,0,2.2,0.4,2.6-1.6l-0.4-13.7c0,0-0.2-2.3-2.7-2
				l-11.9,2C141.1,111.4,139.9,111.8,139.5,112.9z"/>
			<path opacity="0.1" fill="#1C261D" enable-background="new    " d="M139,118c0,0,0-0.1,0,0.4c0,0.5,4.9,2.9,16.9,0.7
				c0,0,0-1-0.1-1.2C155.7,117.6,139,118,139,118z"/>
			<path fill="#3EAA5C" d="M139.2,112.9c0,0-0.3,2.1-0.5,4.5c-0.2,2.3,15.6,2.1,17,0.6c0.9-1,0.2-5.1,0-6.6c-0.1-0.8-0.2-2.3-2.8-2
				l-12.1,2C140.8,111.4,139.6,111.8,139.2,112.9z"/>
			<path opacity="5.000000e-002" fill="#1C261D" enable-background="new    " d="M154.6,109.6c0,0,0.7,0.2,0.9,1
				c0.2,0.8,1.1,6.2,0.2,7.5c0,0-0.9,0.8-5,1.1c-0.1,0-0.1,0-0.2,0c-4.3,0.3-7.2-0.2-8.4-0.3c-1.2-0.1-0.4-7.7,0.7-7.8
				C144.2,111,153.6,109,154.6,109.6z"/>
			<path fill="#33693A" d="M149.7,117.1c0,0-0.8,0.9-0.3,3.3c0,0.1,0.1,0.3,0.5,0.4c0.2,0,0.5,0.1,0.7-0.3c0.5-0.6,0.6-1.6,0.4-3.3
				C151,117.2,150.5,116.6,149.7,117.1z"/>
			<path fill="#33693A" d="M141.8,117.2c0,0-0.6,0.8-0.3,2.6c0,0.1,0.1,0.2,0.4,0.3c0.2,0,0.4,0.1,0.6-0.2c0.4-0.5,0.5-1.3,0.3-2.6
				C142.8,117.3,142.4,116.9,141.8,117.2z"/>
		</g>
	</g>
	<g>
		<polygon fill="#E7F3E8" points="113,108.9 90.5,89.3 90.4,89.3 90.4,86.6 91.3,86.6 91.3,84 87.8,83 82.2,83.7 82.2,86.3 
			83.1,86.3 83.1,87.4 56.3,80.6 56.3,80.6 56.3,80.6 56.2,80.6 56.3,80.7 38.9,109.5 40.7,109.5 40.8,109.5 44.3,109.5 44.3,109.5 
			46.4,137.8 80.8,150.3 105.7,134.8 107.5,109.4 106.6,109.5 		"/>
		<g>
			<g>
				<g>
					<polygon fill="#3EAA5C" points="51.2,134.4 49.2,107.6 60.6,89.4 80.4,109.9 80.4,145.1 					"/>
				</g>
				<g>
					<polygon fill="#2F8E47" points="101.6,131.9 103,110.3 82.3,111.9 80.4,109.9 80.4,145.1 					"/>
				</g>
				<g>
					<polygon fill="#36783E" points="59.6,85.9 84.7,111.9 107.7,109.9 88.6,93.2 					"/>
				</g>
				<g>
					<polygon fill="#323328" points="82.3,93.2 82.3,90.7 81.6,90.7 81.6,88.5 86.4,87.9 86.4,89.9 86,90.2 86,96.6 					"/>
				</g>
				<g>
					<polygon fill="#171714" points="89.3,88.7 89.3,91 88.5,91 88.5,96.6 86,96.6 86,90.2 86.4,89.9 86.4,87.9 					"/>
				</g>
				<g>
					<polygon fill="#213F24" points="46.4,110.4 59.6,88.4 60.6,89.4 49.3,107.6 49.5,110.4 					"/>
				</g>
				<g>
					<polyline fill="#33693A" points="57.9,136.8 56.9,118.1 67.6,119.3 68.1,140.5 					"/>
				</g>
				<g opacity="0.3">
					<polygon fill="#161916" points="49.4,109.4 49.2,107.6 60.6,89.4 61.4,90.3 					"/>
				</g>
				<g opacity="0.2">
					<polyline fill="#20211F" points="80.4,113.6 80.4,109.9 82.3,111.9 103,110.3 103,111.2 					"/>
				</g>
				<g>
					<polygon fill="#33693A" points="44.9,110.4 59.6,85.9 84.8,111.9 82.3,111.9 59.6,88.4 46.4,110.4 					"/>
				</g>
				<g opacity="0.3">
					<path fill="#2C5A33" d="M94,98l13.7,11.9l-23,2L70,96.6C70,96.6,88.4,97,94,98z"/>
				</g>
			</g>
		</g>
	</g>
</g>
</svg>
