<?xml version="1.0" encoding="utf-8"?>
<!-- Generator: Adobe Illustrator 17.1.0, SVG Export Plug-In . SVG Version: 6.00 Build 0)  -->
<!DOCTYPE svg PUBLIC "-//W3C//DTD SVG 1.1//EN" "http://www.w3.org/Graphics/SVG/1.1/DTD/svg11.dtd">
<svg version="1.1" id="Layer_1" xmlns="http://www.w3.org/2000/svg" xmlns:xlink="http://www.w3.org/1999/xlink" x="0px" y="0px"
	 viewBox="15 5 165 198" enable-background="new 15 5 165 198" xml:space="preserve">
<g>

		<image overflow="visible" opacity="0.5" enable-background="new    " width="742" height="858" xlink:href="3E0C6D2.png"  transform="matrix(0.2374 0 0 0.2386 12 3.3481)">
	</image>
	<g>
		<g>
			<line fill="none" stroke="#E7F3E8" stroke-width="3" stroke-miterlimit="10" x1="81.9" y1="113.6" x2="33.9" y2="60.8"/>
			<line fill="none" stroke="#E7F3E8" stroke-width="3" stroke-miterlimit="10" x1="81.9" y1="113.6" x2="27.2" y2="111.4"/>
			<line fill="none" stroke="#E7F3E8" stroke-width="3" stroke-miterlimit="10" x1="81.1" y1="112" x2="73.3" y2="187.7"/>
			<line fill="none" stroke="#E7F3E8" stroke-width="3" stroke-miterlimit="10" x1="81.9" y1="113.6" x2="166" y2="93.6"/>
			<line fill="none" stroke="#E7F3E8" stroke-width="3" stroke-miterlimit="10" x1="127.7" y1="48.7" x2="81.9" y2="113.6"/>
			<line fill="none" stroke="#E7F3E8" stroke-width="3" stroke-miterlimit="10" x1="100.5" y1="19.1" x2="81.9" y2="113.6"/>
			<line fill="none" stroke="#E7F3E8" stroke-width="3" stroke-miterlimit="10" x1="126" y1="78" x2="81.9" y2="113.6"/>
			<line fill="none" stroke="#E7F3E8" stroke-width="3" stroke-miterlimit="10" x1="123.8" y1="159.2" x2="81.9" y2="113.6"/>
			<line fill="none" stroke="#E7F3E8" stroke-width="3" stroke-miterlimit="10" x1="81.9" y1="113.6" x2="64.5" y2="60.4"/>
			<g>
				<path fill="#E7F3E8" d="M107.3,94.4c0,0,0.1-2.9-3.3-4.5c0,0-7.3-1-10.7-0.6c-0.8-0.2-1.8-0.2-3.1-0.1c-0.4-3.3-3.1-4-4.8-4.3
					c-1.7-0.3-11.3,1.9-14.8,3c-2.9,0.9-3.1,4-3.2,5.1l-9,1.5c0,0-3.1,1-4.1,3.9c0,0-0.9,5.6-1.3,11.8c0,0.5,0.3,1,0.8,1.4
					c0,0,0,0.1-0.1,1c0,0,0,0,0,0.1c-0.2,5.3,0,10.5,1.4,12.9c0,0-2.1,2.9,36.2,8.8c0,0,1,0.2,2.2,0c0,0,10.4,0,11.3-0.6
					c1.3-0.9,4.1-1.1,4.8-6.1L107.3,94.4z M71.5,91c1.3-1,9.9-2.3,11.4-2.1c1.2,0.1,1.2,1,1.2,1.4l-0.3,0.1
					c-3.6,0.5-7.5,1.2-10.9,1.8l-1.6,0.3C70.9,91.2,71.5,91,71.5,91z M53.8,111.6C53.8,111.6,53.8,111.7,53.8,111.6
					C53.8,111.7,53.8,111.7,53.8,111.6C53.8,111.7,53.8,111.6,53.8,111.6z"/>
				<g>
					<path fill="#2F7B3C" d="M106.5,125.8l-2.1-29.6c0,0,0.1-2.6-3-4c0,0-9.6-1.3-11-0.2c-2.9,2.3,1.7,39.7,1.7,39.7s9.3,0,10.1-0.5
						C103.5,130.4,105.9,130.2,106.5,125.8z"/>
					<path fill="#33693A" d="M68.9,95.1c0,0-0.3-3.8,2.8-4.8c3.1-1,11.6-3,13.2-2.7c1.5,0.3,4.1,0.9,4.3,4l-5.5,0.9
						c0,0,0.4-1.2-1-1.4c-1.4-0.2-9,1-10.2,1.9c0,0-0.6,0.2-0.2,1.6L68.9,95.1z"/>
					<path fill="#2F8E47" d="M58.1,99.7c0,0-3,19.2,0,24.2c0,0-1.8,2.6,32.2,7.8c0,0,5.1,0.9,6.1-3.7l-0.9-31.8c0,0-0.4-5.2-6.3-4.7
						l-27.5,4.7C61.6,96.2,58.9,97.1,58.1,99.7z"/>
					<path opacity="0.1" fill="#1C261D" enable-background="new    " d="M56.8,111.4c0,0,0-0.2-0.1,0.9c0,1.1,11.3,6.6,39.2,1.5
						c0,0,0.1-2.2-0.2-2.8C95.4,110.4,56.8,111.4,56.8,111.4z"/>
					<path fill="#3EAA5C" d="M57.3,99.7c0,0-0.8,5-1.2,10.5c-0.4,5.4,36.1,4.8,39.3,1.4c2-2.2,0.5-11.9,0-15.3
						c-0.3-2-0.4-5.2-6.4-4.7l-28.1,4.7C60.9,96.2,58.1,97.1,57.3,99.7z"/>
					<path opacity="5.000000e-002" fill="#1C261D" enable-background="new    " d="M93,91.9c0,0,1.7,0.4,2,2.3
						c0.4,1.9,2.6,14.4,0.4,17.3c0,0-2,1.9-11.6,2.6c-0.1,0-0.3,0-0.5,0c-10,0.7-16.7-0.4-19.4-0.7c-2.7-0.2-1-17.9,1.6-18.1
						C68.9,95.1,90.5,90.5,93,91.9z"/>
					<path fill="#33693A" d="M81.7,109.3c0,0-1.9,2.2-0.8,7.7c0.1,0.3,0.2,0.7,1.1,0.8c0.5,0.1,1.1,0.2,1.7-0.6
						c1.2-1.5,1.4-3.7,0.9-7.6C84.7,109.6,83.5,108.2,81.7,109.3z"/>
					<path fill="#33693A" d="M63.2,109.7c0,0-1.5,1.7-0.6,6.1c0.1,0.3,0.1,0.5,0.9,0.6c0.4,0.1,0.9,0.1,1.4-0.5c1-1.2,1.1-3,0.7-6
						C65.6,109.9,64.7,108.8,63.2,109.7z"/>
				</g>
			</g>
			<g>
				<polygon fill="#E7F3E8" points="180.8,90.2 173.5,83.8 173.5,83.8 173.5,82.9 173.7,82.9 173.7,82.1 172.6,81.7 170.8,82
					170.8,82.8 171.1,82.8 171.1,83.2 162.3,81 162.3,81 162.3,81 162.3,81 162.3,81 156.7,90.4 157.2,90.4 157.3,90.4 158.4,90.4
					158.4,90.4 159.1,99.7 170.3,103.8 178.5,98.7 179,90.4 178.8,90.4 				"/>
				<g>
					<g>
						<g>
							<polygon fill="#3EAA5C" points="160.7,98.6 160,89.8 163.7,83.9 170.2,90.5 170.2,102 							"/>
						</g>
						<g>
							<polygon fill="#2F8E47" points="177.1,97.7 177.6,90.7 170.8,91.2 170.2,90.5 170.2,102 							"/>
						</g>
						<g>
							<polygon fill="#36783E" points="163.4,82.7 171.6,91.2 179.1,90.5 172.9,85.1 							"/>
						</g>
						<g>
							<polygon fill="#323328" points="170.8,85.1 170.8,84.3 170.6,84.3 170.6,83.6 172.1,83.3 172.1,84 172,84.1 172,86.2
								"/>
						</g>
						<g>
							<polygon fill="#171714" points="173.1,83.6 173.1,84.4 172.8,84.4 172.8,86.2 172,86.2 172,84.1 172.1,84 172.1,83.3
								"/>
						</g>
						<g>
							<polygon fill="#213F24" points="159.1,90.7 163.4,83.5 163.7,83.9 160,89.8 160.1,90.7 							"/>
						</g>
						<g>
							<polyline fill="#33693A" points="162.8,99.3 162.5,93.2 166,93.6 166.2,100.5 							"/>
						</g>
						<g opacity="0.3">
							<polygon fill="#161916" points="160.1,90.4 160,89.8 163.7,83.9 164,84.1 							"/>
						</g>
						<g opacity="0.2">
							<polyline fill="#20211F" points="170.2,91.8 170.2,90.5 170.8,91.2 177.6,90.7 177.6,91 							"/>
						</g>
						<g>
							<polygon fill="#33693A" points="158.6,90.7 163.4,82.7 171.6,91.2 170.8,91.2 163.4,83.5 159.1,90.7 							"/>
						</g>
						<g opacity="0.3">
							<path fill="#2C5A33" d="M174.6,86.6l4.5,3.9l-7.5,0.7l-4.8-5C166.8,86.2,172.8,86.3,174.6,86.6z"/>
						</g>
					</g>
				</g>
			</g>
			<g>
				<polygon fill="#E7F3E8" points="141,73.6 133.6,67.2 133.6,67.2 133.6,66.3 133.9,66.3 133.9,65.4 132.8,65.1 131,65.3
					131,66.2 131.2,66.2 131.2,66.6 122.5,64.4 122.5,64.3 122.5,64.3 122.5,64.3 122.5,64.4 116.8,73.8 117.4,73.8 117.4,73.8
					118.6,73.8 118.6,73.8 119.3,83 130.5,87.1 138.6,82.1 139.2,73.7 138.9,73.8 				"/>
				<g>
					<g>
						<g>
							<polygon fill="#3EAA5C" points="120.8,81.9 120.2,73.2 123.9,67.2 130.4,73.9 130.4,85.4 							"/>
						</g>
						<g>
							<polygon fill="#2F8E47" points="137.3,81.1 137.7,74 131,74.6 130.4,73.9 130.4,85.4 							"/>
						</g>
						<g>
							<polygon fill="#36783E" points="123.5,66.1 131.8,74.6 139.3,73.9 133,68.5 							"/>
						</g>
						<g>
							<polygon fill="#323328" points="131,68.4 131,67.6 130.8,67.6 130.8,66.9 132.3,66.7 132.3,67.4 132.2,67.5 132.2,69.6
															"/>
						</g>
						<g>
							<polygon fill="#171714" points="133.3,67 133.3,67.7 133,67.7 133,69.6 132.2,69.6 132.2,67.5 132.3,67.4 132.3,66.7
								"/>
						</g>
						<g>
							<polygon fill="#213F24" points="119.3,74.1 123.6,66.9 123.9,67.2 120.2,73.2 120.2,74.1 							"/>
						</g>
						<g>
							<polyline fill="#33693A" points="123,82.7 122.7,76.6 126.2,77 126.3,83.9 							"/>
						</g>
						<g opacity="0.3">
							<polygon fill="#161916" points="120.2,73.7 120.2,73.2 123.9,67.2 124.1,67.5 							"/>
						</g>
						<g opacity="0.2">
							<polyline fill="#20211F" points="130.4,75.1 130.4,73.9 131,74.6 137.7,74 137.7,74.3 							"/>
						</g>
						<g>
							<polygon fill="#33693A" points="118.8,74.1 123.6,66.1 131.8,74.6 131,74.6 123.6,66.9 119.3,74.1 							"/>
						</g>
						<g opacity="0.3">
							<path fill="#2C5A33" d="M134.8,70l4.5,3.9l-7.5,0.7l-4.8-5C126.9,69.6,133,69.7,134.8,70z"/>
						</g>
					</g>
				</g>
			</g>
			<g>
				<polygon fill="#E7F3E8" points="135.9,155.1 128.5,148.7 128.5,148.7 128.5,147.8 128.8,147.8 128.8,147 127.6,146.7
					125.8,146.9 125.8,147.8 126.1,147.8 126.1,148.1 117.3,145.9 117.3,145.9 117.3,145.9 117.3,145.9 117.3,145.9 111.7,155.3
					112.3,155.3 112.3,155.3 113.4,155.3 113.4,155.3 114.1,164.6 125.3,168.7 133.5,163.6 134.1,155.3 133.8,155.3 				"/>
				<g>
					<g>
						<g>
							<polygon fill="#3EAA5C" points="115.7,163.5 115,154.7 118.8,148.8 125.2,155.5 125.2,166.9 							"/>
						</g>
						<g>
							<polygon fill="#2F8E47" points="132.1,162.6 132.6,155.6 125.8,156.1 125.2,155.5 125.2,166.9 							"/>
						</g>
						<g>
							<polygon fill="#36783E" points="118.4,147.6 126.6,156.1 134.1,155.5 127.9,150 							"/>
						</g>
						<g>
							<polygon fill="#323328" points="125.8,150 125.8,149.2 125.6,149.2 125.6,148.5 127.2,148.3 127.2,148.9 127,149 127,151.1
															"/>
						</g>
						<g>
							<polygon fill="#171714" points="128.1,148.5 128.1,149.3 127.9,149.3 127.9,151.1 127,151.1 127,149 127.2,148.9
								127.2,148.3 							"/>
						</g>
						<g>
							<polygon fill="#213F24" points="114.1,155.6 118.4,148.4 118.8,148.8 115.1,154.7 115.1,155.6 							"/>
						</g>
						<g>
							<polyline fill="#33693A" points="117.9,164.2 117.5,158.1 121,158.5 121.2,165.5 							"/>
						</g>
						<g opacity="0.3">
							<polygon fill="#161916" points="115.1,155.3 115,154.7 118.8,148.8 119,149 							"/>
						</g>
						<g opacity="0.2">
							<polyline fill="#20211F" points="125.2,156.7 125.2,155.5 125.8,156.1 132.6,155.6 132.6,155.9 							"/>
						</g>
						<g>
							<polygon fill="#33693A" points="113.6,155.6 118.4,147.6 126.6,156.1 125.8,156.1 118.4,148.4 114.1,155.6 							"/>
						</g>
						<g opacity="0.3">
							<path fill="#2C5A33" d="M129.7,151.6l4.5,3.9l-7.5,0.7l-4.8-5C121.8,151.1,127.8,151.3,129.7,151.6z"/>
						</g>
					</g>
				</g>
			</g>
			<g>
				<polygon fill="#E7F3E8" points="39.9,108.7 32.5,102.3 32.5,102.3 32.5,101.4 32.8,101.4 32.8,100.5 31.7,100.2 29.8,100.4
					29.8,101.3 30.1,101.3 30.1,101.7 21.4,99.4 21.4,99.4 21.4,99.4 21.4,99.4 21.4,99.5 15.7,108.9 16.3,108.9 16.3,108.9
					17.5,108.9 17.5,108.9 18.2,118.1 29.4,122.2 37.5,117.1 38.1,108.8 37.8,108.9 				"/>
				<g>
					<g>
						<g>
							<polygon fill="#3EAA5C" points="19.7,117 19.1,108.2 22.8,102.3 29.2,109 29.2,120.5 							"/>
						</g>
						<g>
							<polygon fill="#2F8E47" points="36.2,116.2 36.6,109.1 29.9,109.7 29.2,109 29.2,120.5 							"/>
						</g>
						<g>
							<polygon fill="#36783E" points="22.4,101.2 30.7,109.7 38.2,109 31.9,103.6 							"/>
						</g>
						<g>
							<polygon fill="#323328" points="29.9,103.5 29.9,102.7 29.6,102.7 29.6,102 31.2,101.8 31.2,102.5 31.1,102.6 31.1,104.7
															"/>
						</g>
						<g>
							<polygon fill="#171714" points="32.1,102.1 32.1,102.8 31.9,102.8 31.9,104.7 31.1,104.7 31.1,102.6 31.2,102.5 31.2,101.8
															"/>
						</g>
						<g>
							<polygon fill="#213F24" points="18.1,109.2 22.5,102 22.8,102.3 19.1,108.2 19.1,109.2 							"/>
						</g>
						<g>
							<polyline fill="#33693A" points="21.9,117.8 21.6,111.7 25,112.1 25.2,119 							"/>
						</g>
						<g opacity="0.3">
							<polygon fill="#161916" points="19.1,108.8 19.1,108.2 22.8,102.3 23,102.6 							"/>
						</g>
						<g opacity="0.2">
							<polyline fill="#20211F" points="29.2,110.2 29.3,109 29.9,109.7 36.6,109.1 36.6,109.4 							"/>
						</g>
						<g>
							<polygon fill="#33693A" points="17.6,109.2 22.5,101.2 30.7,109.7 29.9,109.7 22.5,102 18.2,109.2 							"/>
						</g>
						<g opacity="0.3">
							<path fill="#2C5A33" d="M33.7,105.1l4.5,3.9l-7.5,0.7l-4.8-5C25.8,104.7,31.9,104.8,33.7,105.1z"/>
						</g>
					</g>
				</g>
			</g>
			<g>
				<polygon fill="#E7F3E8" points="140,45.3 132.6,38.9 132.6,38.8 132.6,38 132.9,38 132.9,37.1 131.8,36.8 129.9,37 129.9,37.9
					130.2,37.9 130.2,38.2 121.5,36 121.5,36 121.5,36 121.4,36 121.5,36 115.8,45.5 116.4,45.5 116.4,45.5 117.6,45.5 117.6,45.5
					118.2,54.7 129.5,58.8 137.6,53.7 138.2,45.4 137.9,45.5 				"/>
				<g>
					<g>
						<g>
							<polygon fill="#3EAA5C" points="119.8,53.6 119.2,44.8 122.9,38.9 129.3,45.6 129.3,57.1 							"/>
						</g>
						<g>
							<polygon fill="#2F8E47" points="136.2,52.8 136.7,45.7 130,46.3 129.3,45.6 129.3,57.1 							"/>
						</g>
						<g>
							<polygon fill="#36783E" points="122.5,37.8 130.7,46.3 138.3,45.6 132,40.2 							"/>
						</g>
						<g>
							<polygon fill="#323328" points="130,40.1 130,39.3 129.7,39.3 129.7,38.6 131.3,38.4 131.3,39 131.1,39.1 131.1,41.3
								"/>
						</g>
						<g>
							<polygon fill="#171714" points="132.2,38.7 132.2,39.4 132,39.4 132,41.3 131.1,41.3 131.1,39.1 131.3,39 131.3,38.4
								"/>
						</g>
						<g>
							<polygon fill="#213F24" points="118.2,45.8 122.5,38.6 122.9,38.9 119.2,44.8 119.2,45.8 							"/>
						</g>
						<g>
							<polyline fill="#33693A" points="122,54.4 121.7,48.3 125.1,48.7 125.3,55.6 							"/>
						</g>
						<g opacity="0.3">
							<polygon fill="#161916" points="119.2,45.4 119.2,44.8 122.9,38.9 123.1,39.2 							"/>
						</g>
						<g opacity="0.2">
							<polyline fill="#20211F" points="129.3,46.8 129.3,45.6 130,46.3 136.7,45.7 136.7,46 							"/>
						</g>
						<g>
							<polygon fill="#33693A" points="117.7,45.8 122.5,37.8 130.8,46.3 130,46.3 122.5,38.6 118.2,45.8 							"/>
						</g>
						<g opacity="0.3">
							<path fill="#2C5A33" d="M133.8,41.7l4.5,3.9l-7.5,0.7l-4.8-5C125.9,41.3,131.9,41.4,133.8,41.7z"/>
						</g>
					</g>
				</g>
			</g>
			<g>
				<polygon fill="#E7F3E8" points="77.9,56.7 70.5,50.2 70.5,50.2 70.5,49.4 70.8,49.4 70.8,48.5 69.7,48.2 67.9,48.4 67.9,49.3
					68.1,49.3 68.1,49.6 59.4,47.4 59.4,47.4 59.4,47.4 59.4,47.4 59.4,47.4 53.7,56.8 54.3,56.8 54.3,56.8 55.5,56.8 55.5,56.8
					56.2,66.1 67.4,70.2 75.5,65.1 76.1,56.8 75.8,56.8 				"/>
				<g>
					<g>
						<g>
							<polygon fill="#3EAA5C" points="57.7,65 57.1,56.2 60.8,50.3 67.3,57 67.3,68.5 							"/>
						</g>
						<g>
							<polygon fill="#2F8E47" points="74.2,64.2 74.6,57.1 67.9,57.6 67.3,57 67.3,68.5 							"/>
						</g>
						<g>
							<polygon fill="#36783E" points="60.4,49.1 68.7,57.6 76.2,57 69.9,51.5 							"/>
						</g>
						<g>
							<polygon fill="#323328" points="67.9,51.5 67.9,50.7 67.6,50.7 67.6,50 69.2,49.8 69.2,50.4 69.1,50.5 69.1,52.6 							"/>
						</g>
						<g>
							<polygon fill="#171714" points="70.1,50.1 70.1,50.8 69.9,50.8 69.9,52.6 69.1,52.6 69.1,50.5 69.2,50.4 69.2,49.8
								"/>
						</g>
						<g>
							<polygon fill="#213F24" points="56.1,57.1 60.5,50 60.8,50.3 57.1,56.2 57.1,57.1 							"/>
						</g>
						<g>
							<polyline fill="#33693A" points="59.9,65.8 59.6,59.7 63.1,60 63.2,67 							"/>
						</g>
						<g opacity="0.3">
							<polygon fill="#161916" points="57.1,56.8 57.1,56.2 60.8,50.3 61,50.6 							"/>
						</g>
						<g opacity="0.2">
							<polyline fill="#20211F" points="67.3,58.2 67.3,57 67.9,57.6 74.6,57.1 74.6,57.4 							"/>
						</g>
						<g>
							<polygon fill="#33693A" points="55.6,57.1 60.5,49.1 68.7,57.6 67.9,57.6 60.5,50 56.2,57.1 							"/>
						</g>
						<g opacity="0.3">
							<path fill="#2C5A33" d="M71.7,53.1l4.5,3.9l-7.5,0.7l-4.8-5C63.8,52.6,69.9,52.8,71.7,53.1z"/>
						</g>
					</g>
				</g>
			</g>
			<g>
				<polygon fill="#E7F3E8" points="113.7,16.3 106.4,9.9 106.3,9.9 106.3,9 106.6,9 106.6,8.1 105.5,7.8 103.7,8.1 103.7,8.9
					103.9,8.9 103.9,9.3 95.2,7.1 95.2,7 95.2,7.1 95.2,7 95.2,7.1 89.5,16.5 90.1,16.5 90.1,16.5 91.3,16.5 91.3,16.5 92,25.7
					103.2,29.8 111.3,24.8 111.9,16.4 111.6,16.5 				"/>
				<g>
					<g>
						<g>
							<polygon fill="#3EAA5C" points="93.5,24.6 92.9,15.9 96.6,9.9 103.1,16.6 103.1,28.1 							"/>
						</g>
						<g>
							<polygon fill="#2F8E47" points="110,23.8 110.5,16.7 103.7,17.3 103.1,16.6 103.1,28.1 							"/>
						</g>
						<g>
							<polygon fill="#36783E" points="96.3,8.8 104.5,17.3 112,16.6 105.7,11.2 							"/>
						</g>
						<g>
							<polygon fill="#323328" points="103.7,11.1 103.7,10.3 103.5,10.3 103.5,9.6 105,9.4 105,10.1 104.9,10.2 104.9,12.3
								"/>
						</g>
						<g>
							<polygon fill="#171714" points="106,9.7 106,10.4 105.7,10.4 105.7,12.3 104.9,12.3 104.9,10.2 105,10.1 105,9.4 							"/>
						</g>
						<g>
							<polygon fill="#213F24" points="92,16.8 96.3,9.6 96.6,9.9 92.9,15.9 93,16.8 							"/>
						</g>
						<g>
							<polyline fill="#33693A" points="95.7,25.4 95.4,19.3 98.9,19.7 99,26.6 							"/>
						</g>
						<g opacity="0.3">
							<polygon fill="#161916" points="92.9,16.4 92.9,15.9 96.6,9.9 96.8,10.2 							"/>
						</g>
						<g opacity="0.2">
							<polyline fill="#20211F" points="103.1,17.8 103.1,16.6 103.7,17.3 110.5,16.7 110.4,17 							"/>
						</g>
						<g>
							<polygon fill="#33693A" points="91.5,16.8 96.3,8.8 104.5,17.3 103.7,17.3 96.3,9.6 92,16.8 							"/>
						</g>
						<g opacity="0.3">
							<path fill="#2C5A33" d="M107.5,12.7l4.5,3.9l-7.5,0.7l-4.8-5C99.7,12.3,105.7,12.4,107.5,12.7z"/>
						</g>
					</g>
				</g>
			</g>
			<g>
				<polygon fill="#E7F3E8" points="85.4,187.3 78,180.9 78,180.9 78,180 78.3,180 78.3,179.2 77.1,178.9 75.3,179.1 75.3,179.9
					75.6,179.9 75.6,180.3 66.8,178.1 66.8,178.1 66.8,178.1 66.8,178.1 66.8,178.1 61.2,187.5 61.8,187.5 61.8,187.5 62.9,187.5
					62.9,187.5 63.6,196.8 74.8,200.9 83,195.8 83.6,187.5 83.3,187.5 				"/>
				<g>
					<g>
						<g>
							<polygon fill="#3EAA5C" points="65.2,195.7 64.5,186.9 68.3,181 74.7,187.7 74.7,199.1 							"/>
						</g>
						<g>
							<polygon fill="#2F8E47" points="81.6,194.8 82.1,187.8 75.3,188.3 74.7,187.7 74.7,199.1 							"/>
						</g>
						<g>
							<polygon fill="#36783E" points="67.9,179.8 76.1,188.3 83.6,187.7 77.4,182.2 							"/>
						</g>
						<g>
							<polygon fill="#323328" points="75.3,182.2 75.3,181.4 75.1,181.4 75.1,180.7 76.7,180.5 76.7,181.1 76.5,181.2 76.5,183.3
															"/>
						</g>
						<g>
							<polygon fill="#171714" points="77.6,180.7 77.6,181.5 77.4,181.5 77.4,183.3 76.5,183.3 76.5,181.2 76.7,181.1 76.7,180.5
															"/>
						</g>
						<g>
							<polygon fill="#213F24" points="63.6,187.8 67.9,180.6 68.3,181 64.6,186.9 64.6,187.8 							"/>
						</g>
						<g>
							<polyline fill="#33693A" points="67.4,196.4 67,190.3 70.5,190.7 70.7,197.7 							"/>
						</g>
						<g opacity="0.3">
							<polygon fill="#161916" points="64.6,187.5 64.5,186.9 68.3,181 68.5,181.2 							"/>
						</g>
						<g opacity="0.2">
							<polyline fill="#20211F" points="74.7,188.9 74.7,187.7 75.3,188.3 82.1,187.8 82.1,188.1 							"/>
						</g>
						<g>
							<polygon fill="#33693A" points="63.1,187.8 67.9,179.8 76.1,188.3 75.3,188.3 67.9,180.6 63.6,187.8 							"/>
						</g>
						<g opacity="0.3">
							<path fill="#2C5A33" d="M79.2,183.8l4.5,3.9l-7.5,0.7l-4.8-5C71.3,183.3,77.3,183.5,79.2,183.8z"/>
						</g>
					</g>
				</g>
			</g>
			<g>
				<polygon fill="#E7F3E8" points="47.2,57.8 39.9,51.4 39.8,51.4 39.8,50.5 40.1,50.5 40.1,49.6 39,49.3 37.2,49.6 37.2,50.4
					37.4,50.4 37.4,50.8 28.7,48.6 28.7,48.6 28.7,48.6 28.7,48.6 28.7,48.6 23,58 23.6,58 23.6,58 24.8,58 24.8,58 25.5,67.2
					36.7,71.3 44.9,66.3 45.4,58 45.1,58 				"/>
				<g>
					<g>
						<g>
							<polygon fill="#3EAA5C" points="27.1,66.1 26.4,57.4 30.1,51.4 36.6,58.1 36.6,69.6 							"/>
						</g>
						<g>
							<polygon fill="#2F8E47" points="43.5,65.3 44,58.3 37.2,58.8 36.6,58.1 36.6,69.6 							"/>
						</g>
						<g>
							<polygon fill="#36783E" points="29.8,50.3 38,58.8 45.5,58.1 39.3,52.7 							"/>
						</g>
						<g>
							<polygon fill="#323328" points="37.2,52.6 37.2,51.8 37,51.8 37,51.1 38.5,50.9 38.5,51.6 38.4,51.7 38.4,53.8 							"/>
						</g>
						<g>
							<polygon fill="#171714" points="39.5,51.2 39.5,51.9 39.2,51.9 39.2,53.8 38.4,53.8 38.4,51.7 38.5,51.6 38.5,50.9
								"/>
						</g>
						<g>
							<polygon fill="#213F24" points="25.5,58.3 29.8,51.1 30.1,51.4 26.4,57.4 26.5,58.3 							"/>
						</g>
						<g>
							<polyline fill="#33693A" points="29.2,66.9 28.9,60.8 32.4,61.2 32.6,68.1 							"/>
						</g>
						<g opacity="0.3">
							<polygon fill="#161916" points="26.4,57.9 26.4,57.4 30.1,51.4 30.4,51.7 							"/>
						</g>
						<g opacity="0.2">
							<polyline fill="#20211F" points="36.6,59.3 36.6,58.1 37.2,58.8 44,58.3 43.9,58.5 							"/>
						</g>
						<g>
							<polygon fill="#33693A" points="25,58.3 29.8,50.3 38,58.8 37.2,58.8 29.8,51.1 25.5,58.3 							"/>
						</g>
						<g opacity="0.3">
							<path fill="#2C5A33" d="M41,54.2l4.5,3.9L38,58.8l-4.8-5C33.2,53.8,39.2,53.9,41,54.2z"/>
						</g>
					</g>
				</g>
			</g>
		</g>
	</g>
</g>
</svg>
