<?xml version="1.0" encoding="utf-8"?>
<!-- Generator: Adobe Illustrator 17.1.0, SVG Export Plug-In . SVG Version: 6.00 Build 0)  -->
<!DOCTYPE svg PUBLIC "-//W3C//DTD SVG 1.1//EN" "http://www.w3.org/Graphics/SVG/1.1/DTD/svg11.dtd">
<svg version="1.1" id="Layer_1" xmlns="http://www.w3.org/2000/svg" xmlns:xlink="http://www.w3.org/1999/xlink" x="0px" y="0px"
	 viewBox="0 0 180 200" enable-background="new 0 0 180 200" xml:space="preserve">
<filter  id="AI_Shadow_1" filterUnits="objectBoundingBox">
	<feGaussianBlur  in="SourceAlpha" stdDeviation="2" result="blur"></feGaussianBlur>
	<feOffset  dy="2" dx="2" in="blur" result="offsetBlurredAlpha"></feOffset>
	<feMerge>
		<feMergeNode  in="offsetBlurredAlpha"></feMergeNode>
		<feMergeNode  in="SourceGraphic"></feMergeNode>
	</feMerge>
</filter>
<g filter="url(#AI_Shadow_1)">
	<line fill="none" stroke="#E7F3E8" stroke-width="3" stroke-miterlimit="10" x1="69.35" y1="110.037" x2="21.312" y2="57.191"/>
	<line fill="none" stroke="#E7F3E8" stroke-width="3" stroke-miterlimit="10" x1="69.35" y1="110.037" x2="14.584" y2="107.773"/>
	<line fill="none" stroke="#E7F3E8" stroke-width="3" stroke-miterlimit="10" x1="68.541" y1="108.408" x2="60.68" y2="184.098"/>
	<line fill="none" stroke="#E7F3E8" stroke-width="3" stroke-miterlimit="10" x1="69.35" y1="110.037" x2="153.414" y2="89.998"/>
	<line fill="none" stroke="#E7F3E8" stroke-width="3" stroke-miterlimit="10" x1="115.092" y1="45.05" x2="69.35" y2="110.037"/>
	<line fill="none" stroke="#E7F3E8" stroke-width="3" stroke-miterlimit="10" x1="87.894" y1="15.531" x2="69.35" y2="110.037"/>
	<line fill="none" stroke="#E7F3E8" stroke-width="3" stroke-miterlimit="10" x1="113.418" y1="74.414" x2="69.35" y2="110.037"/>
	<line fill="none" stroke="#E7F3E8" stroke-width="3" stroke-miterlimit="10" x1="111.179" y1="155.592" x2="69.352" y2="110.037"/>
	<line fill="none" stroke="#E7F3E8" stroke-width="3" stroke-miterlimit="10" x1="69.35" y1="110.037" x2="51.953" y2="56.783"/>
	<g>
		<path fill="#E7F3E8" d="M94.715,90.831c0,0,0.102-2.934-3.342-4.455c0,0-7.269-0.953-10.731-0.629
			c-0.825-0.158-1.831-0.208-3.07-0.112c-0.36-3.316-3.136-4.014-4.833-4.31c-1.719-0.307-11.342,1.923-14.782,3.039
			c-2.88,0.926-3.147,4.046-3.152,5.051l-9.002,1.501c0,0-3.131,0.999-4.071,3.892c0,0-0.895,5.587-1.316,11.812
			c-0.035,0.521,0.25,0.993,0.785,1.419c-0.011-0.008-0.043,0.063-0.055,1.02c0,0.021,0.004,0.037,0.01,0.06
			c-0.227,5.267-0.01,10.521,1.428,12.886c0,0-2.053,2.936,36.155,8.811c0,0,0.976,0.164,2.205-0.002
			c0.002,0,10.427,0.01,11.342-0.59c1.33-0.865,4.05-1.111,4.76-6.074L94.715,90.831z M58.864,87.398
			c1.315-1.011,9.925-2.328,11.444-2.14c1.156,0.142,1.197,0.979,1.15,1.372l-0.336,0.058c-3.561,0.523-7.479,1.211-10.934,1.826
			l-1.641,0.271C58.291,87.566,58.864,87.398,58.864,87.398z M41.202,108.039c0,0,0,0.004,0.003,0.004c0,0.002,0,0.002,0,0.006
			C41.205,108.044,41.202,108.043,41.202,108.039z"/>
		<g>
			<path fill="#2F7B3C" d="M93.919,122.154l-2.074-29.64c0,0,0.093-2.613-2.973-3.963c0,0-9.64-1.263-10.99-0.179
				c-2.872,2.298,1.711,39.712,1.711,39.712s9.273,0.006,10.091-0.525C90.864,126.787,93.286,126.568,93.919,122.154z"/>
			<path fill="#33693A" d="M56.346,91.534c0,0-0.267-3.786,2.797-4.776c3.065-0.99,11.621-2.971,13.154-2.702
				c1.532,0.27,4.051,0.901,4.315,3.966l-5.489,0.941c0,0,0.361-1.238-0.99-1.406c-1.351-0.167-9.01,1.003-10.178,1.903
				c0,0-0.633,0.183-0.181,1.625L56.346,91.534z"/>
			<path fill="#2F8E47" d="M45.466,96.053c0,0-3.007,19.238,0,24.193c0,0-1.825,2.613,32.165,7.84c0,0,5.115,0.854,6.108-3.695
				l-0.916-31.802c0,0-0.36-5.225-6.283-4.687l-27.521,4.687C49.019,92.589,46.285,93.478,45.466,96.053z"/>
			<path opacity="0.1" fill="#1C261D" d="M44.244,107.831c0,0-0.041-0.159-0.051,0.903c-0.014,1.056,11.257,6.618,39.192,1.526
				c0,0,0.059-2.216-0.244-2.842C82.837,106.795,44.244,107.831,44.244,107.831z"/>
			<path fill="#3EAA5C" d="M44.71,96.053c0,0-0.79,4.971-1.166,10.509c-0.366,5.358,36.117,4.814,39.293,1.357
				c2.038-2.222,0.49-11.873-0.029-15.331c-0.295-1.961-0.372-5.225-6.414-4.683l-28.061,4.683
				C48.333,92.589,45.547,93.478,44.71,96.053z"/>
			<path opacity="0.05" fill="#1C261D" d="M80.411,88.316c0,0,1.666,0.423,2.038,2.349c0.374,1.923,2.611,14.434,0.388,17.254
				c0,0-2.018,1.903-11.606,2.601c-0.148,0.009-0.299,0.024-0.455,0.032c-9.98,0.673-16.689-0.434-19.406-0.666
				c-2.723-0.24-1.025-17.851,1.607-18.071C56.346,91.534,77.925,86.915,80.411,88.316z"/>
			<path fill="#33693A" d="M69.066,105.705c0,0-1.9,2.206-0.8,7.696c0.07,0.344,0.168,0.652,1.145,0.81
				c0.452,0.076,1.093,0.164,1.726-0.612c1.223-1.482,1.438-3.747,0.932-7.629C72.068,105.97,70.926,104.589,69.066,105.705z"/>
			<path fill="#33693A" d="M50.644,106.064c0,0-1.5,1.745-0.631,6.081c0.055,0.27,0.133,0.515,0.904,0.642
				c0.357,0.058,0.863,0.13,1.365-0.485c0.962-1.173,1.134-2.962,0.733-6.026C53.017,106.275,52.117,105.182,50.644,106.064z"/>
		</g>
	</g>
	<g>
		<polygon fill="#E7F3E8" points="168.252,86.61 160.901,80.2 160.867,80.191 160.867,79.318 161.154,79.318 161.154,78.468
			160.029,78.133 158.207,78.377 158.207,79.228 158.481,79.228 158.481,79.588 149.742,77.379 149.736,77.374 149.734,77.377
			149.72,77.374 149.728,77.385 144.067,86.803 144.657,86.803 144.671,86.803 145.831,86.803 145.831,86.796 146.518,96.048
			157.741,100.143 165.885,95.079 166.452,86.771 166.17,86.794 		"/>
		<g>
			<g>
				<g>
					<polygon fill="#3EAA5C" points="148.084,94.945 147.432,86.18 151.147,80.253 157.607,86.936 157.607,98.418 					"/>
				</g>
				<g>
					<polygon fill="#2F8E47" points="164.518,94.12 164.999,87.072 158.24,87.594 157.607,86.936 157.607,98.418 					"/>
				</g>
				<g>
					<polygon fill="#36783E" points="150.801,79.098 159.024,87.594 166.526,86.936 160.29,81.496 					"/>
				</g>
				<g>
					<polygon fill="#323328" points="158.236,81.47 158.236,80.671 158.002,80.671 158.002,79.949 159.55,79.742 159.55,80.387
						159.419,80.49 159.419,82.604 					"/>
				</g>
				<g>
					<polygon fill="#171714" points="160.503,80.026 160.503,80.748 160.259,80.748 160.259,82.604 159.419,82.604 159.419,80.49
						159.55,80.387 159.55,79.742 					"/>
				</g>
				<g>
					<polygon fill="#213F24" points="146.504,87.1 150.814,79.922 151.147,80.253 147.447,86.18 147.501,87.1 					"/>
				</g>
				<g>
					<polyline fill="#33693A" points="150.256,95.724 149.935,89.62 153.414,89.998 153.587,96.939 					"/>
				</g>
				<g opacity="0.3">
					<polygon fill="#161916" points="147.475,86.754 147.432,86.18 151.147,80.253 151.394,80.525 					"/>
				</g>
				<g opacity="0.2">
					<polyline fill="#20211F" points="157.607,88.157 157.621,86.936 158.24,87.594 164.999,87.072 164.979,87.353 					"/>
				</g>
				<g>
					<polygon fill="#33693A" points="146.004,87.1 150.814,79.098 159.038,87.594 158.24,87.594 150.814,79.922 146.518,87.1
						"/>
				</g>
				<g opacity="0.3">
					<path fill="#2C5A33" d="M162.061,83.04l4.465,3.896l-7.502,0.658l-4.828-4.99C154.196,82.604,160.223,82.731,162.061,83.04z"/>
				</g>
			</g>
		</g>
	</g>
	<g>
		<polygon fill="#E7F3E8" points="128.416,69.976 121.062,63.565 121.028,63.557 121.028,62.684 121.317,62.684 121.317,61.833
			120.192,61.499 118.371,61.743 118.371,62.593 118.644,62.593 118.644,62.954 109.905,60.745 109.898,60.74 109.898,60.743
			109.883,60.74 109.893,60.75 104.228,70.169 104.819,70.169 104.834,70.169 105.994,70.169 105.992,70.161 106.681,79.414
			117.903,83.509 126.046,78.444 126.615,70.137 126.334,70.159 		"/>
		<g>
			<g>
				<g>
					<polygon fill="#3EAA5C" points="108.247,78.312 107.596,69.545 111.311,63.618 117.77,70.301 117.77,81.783 					"/>
				</g>
				<g>
					<polygon fill="#2F8E47" points="124.681,77.484 125.16,70.438 118.401,70.96 117.77,70.301 117.77,81.783 					"/>
				</g>
				<g>
					<polygon fill="#36783E" points="110.964,62.463 119.185,70.96 126.69,70.301 120.453,64.861 					"/>
				</g>
				<g>
					<polygon fill="#323328" points="118.397,64.835 118.397,64.036 118.166,64.036 118.166,63.315 119.713,63.107 119.713,63.752
						119.582,63.856 119.582,65.97 					"/>
				</g>
				<g>
					<polygon fill="#171714" points="120.666,63.392 120.666,64.113 120.422,64.113 120.422,65.97 119.582,65.97 119.582,63.856
						119.713,63.752 119.713,63.107 					"/>
				</g>
				<g>
					<polygon fill="#213F24" points="106.667,70.465 110.977,63.288 111.311,63.618 107.608,69.545 107.664,70.465 					"/>
				</g>
				<g>
					<polyline fill="#33693A" points="110.418,79.09 110.1,72.986 113.577,73.363 113.748,80.305 					"/>
				</g>
				<g opacity="0.3">
					<polygon fill="#161916" points="107.638,70.12 107.596,69.545 111.311,63.618 111.555,63.891 					"/>
				</g>
				<g opacity="0.2">
					<polyline fill="#20211F" points="117.77,71.522 117.784,70.301 118.401,70.96 125.16,70.438 125.143,70.717 					"/>
				</g>
				<g>
					<polygon fill="#33693A" points="106.165,70.465 110.977,62.463 119.201,70.96 118.401,70.96 110.977,63.288 106.681,70.465
											"/>
				</g>
				<g opacity="0.3">
					<path fill="#2C5A33" d="M122.225,66.406l4.466,3.896l-7.505,0.658l-4.828-4.99C114.357,65.97,120.384,66.096,122.225,66.406z"
						/>
				</g>
			</g>
		</g>
	</g>
	<g>
		<polygon fill="#E7F3E8" points="123.271,151.525 115.92,145.115 115.886,145.107 115.886,144.232 116.174,144.232
			116.174,143.383 115.05,143.049 113.227,143.293 113.227,144.145 113.501,144.145 113.501,144.504 104.762,142.295
			104.756,142.289 104.754,142.293 104.74,142.289 104.75,142.301 99.085,151.719 99.677,151.719 99.691,151.719 100.85,151.719
			100.849,151.711 101.538,160.965 112.761,165.059 120.901,159.994 121.471,151.688 121.191,151.709 		"/>
		<g>
			<g>
				<g>
					<polygon fill="#3EAA5C" points="103.104,159.861 102.451,151.094 106.169,145.168 112.628,151.852 112.628,163.332 					"/>
				</g>
				<g>
					<polygon fill="#2F8E47" points="119.536,159.035 120.018,151.986 113.259,152.51 112.628,151.852 112.628,163.332 					"/>
				</g>
				<g>
					<polygon fill="#36783E" points="105.819,144.012 114.043,152.51 121.548,151.852 115.309,146.412 					"/>
				</g>
				<g>
					<polygon fill="#323328" points="113.253,146.385 113.253,145.586 113.021,145.586 113.021,144.865 114.568,144.656
						114.568,145.303 114.44,145.406 114.44,147.52 					"/>
				</g>
				<g>
					<polygon fill="#171714" points="115.521,144.941 115.521,145.664 115.28,145.664 115.28,147.52 114.44,147.52 114.44,145.406
						114.568,145.303 114.568,144.656 					"/>
				</g>
				<g>
					<polygon fill="#213F24" points="101.523,152.014 105.835,144.838 106.169,145.168 102.467,151.094 102.52,152.014 					"/>
				</g>
				<g>
					<polyline fill="#33693A" points="105.275,160.641 104.957,154.535 108.435,154.912 108.605,161.855 					"/>
				</g>
				<g opacity="0.3">
					<polygon fill="#161916" points="102.495,151.67 102.451,151.094 106.169,145.168 106.41,145.441 					"/>
				</g>
				<g opacity="0.2">
					<polyline fill="#20211F" points="112.628,153.072 112.64,151.852 113.259,152.51 120.018,151.986 120.001,152.268 					"/>
				</g>
				<g>
					<polygon fill="#33693A" points="101.021,152.014 105.835,144.012 114.057,152.51 113.259,152.51 105.835,144.838
						101.536,152.014 					"/>
				</g>
				<g opacity="0.3">
					<path fill="#2C5A33" d="M117.08,147.955l4.468,3.896l-7.505,0.658l-4.827-4.99C109.216,147.52,115.241,147.646,117.08,147.955z
						"/>
				</g>
			</g>
		</g>
	</g>
	<g>
		<polygon fill="#E7F3E8" points="27.301,105.071 19.949,98.66 19.914,98.652 19.914,97.778 20.203,97.778 20.203,96.928
			19.078,96.594 17.256,96.837 17.256,97.688 17.529,97.688 17.529,98.048 8.79,95.839 8.783,95.835 8.781,95.838 8.769,95.835
			8.777,95.846 3.113,105.263 3.704,105.263 3.719,105.263 4.879,105.263 4.878,105.256 5.566,114.51 16.787,118.604 24.931,113.54
			25.499,105.232 25.219,105.254 		"/>
		<g>
			<g>
				<g>
					<polygon fill="#3EAA5C" points="7.133,113.406 6.479,104.64 10.197,98.713 16.656,105.396 16.656,116.877 					"/>
				</g>
				<g>
					<polygon fill="#2F8E47" points="23.565,112.58 24.047,105.533 17.287,106.054 16.656,105.396 16.656,116.877 					"/>
				</g>
				<g>
					<polygon fill="#36783E" points="9.849,97.557 18.071,106.054 25.576,105.396 19.338,99.956 					"/>
				</g>
				<g>
					<polygon fill="#323328" points="17.282,99.93 17.282,99.131 17.051,99.131 17.051,98.41 18.598,98.201 18.598,98.848
						18.469,98.951 18.469,101.065 					"/>
				</g>
				<g>
					<polygon fill="#171714" points="19.551,98.487 19.551,99.209 19.308,99.209 19.308,101.065 18.469,101.065 18.469,98.951
						18.598,98.848 18.598,98.201 					"/>
				</g>
				<g>
					<polygon fill="#213F24" points="5.552,105.56 9.863,98.383 10.197,98.713 6.494,104.64 6.549,105.56 					"/>
				</g>
				<g>
					<polyline fill="#33693A" points="9.303,114.186 8.984,108.081 12.463,108.459 12.634,115.4 					"/>
				</g>
				<g opacity="0.3">
					<polygon fill="#161916" points="6.523,105.215 6.479,104.64 10.197,98.713 10.439,98.986 					"/>
				</g>
				<g opacity="0.2">
					<polyline fill="#20211F" points="16.656,106.618 16.668,105.396 17.287,106.054 24.047,105.533 24.028,105.813 					"/>
				</g>
				<g>
					<polygon fill="#33693A" points="5.051,105.56 9.863,97.557 18.086,106.054 17.287,106.054 9.863,98.383 5.564,105.56 					"/>
				</g>
				<g opacity="0.3">
					<path fill="#2C5A33" d="M21.109,101.499l4.467,3.897l-7.505,0.658l-4.827-4.989C13.244,101.065,19.269,101.192,21.109,101.499z
						"/>
				</g>
			</g>
		</g>
	</g>
	<g>
		<polygon fill="#E7F3E8" points="127.39,41.662 120.037,35.251 120.002,35.243 120.002,34.37 120.292,34.37 120.292,33.52
			119.166,33.185 117.343,33.429 117.343,34.279 117.619,34.279 117.619,34.64 108.88,32.431 108.872,32.426 108.87,32.429
			108.856,32.426 108.866,32.437 103.202,41.855 103.793,41.855 103.809,41.855 104.969,41.855 104.967,41.847 105.655,51.101
			116.877,55.194 125.02,50.13 125.588,41.823 125.308,41.845 		"/>
		<g>
			<g>
				<g>
					<polygon fill="#3EAA5C" points="107.222,49.998 106.569,41.231 110.285,35.304 116.745,41.987 116.745,53.469 					"/>
				</g>
				<g>
					<polygon fill="#2F8E47" points="123.655,49.17 124.135,42.125 117.376,42.646 116.745,41.987 116.745,53.469 					"/>
				</g>
				<g>
					<polygon fill="#36783E" points="109.938,34.149 118.16,42.646 125.664,41.987 119.427,36.547 					"/>
				</g>
				<g>
					<polygon fill="#323328" points="117.372,36.521 117.372,35.723 117.14,35.723 117.14,35.001 118.687,34.793 118.687,35.438
						118.557,35.542 118.557,37.656 					"/>
				</g>
				<g>
					<polygon fill="#171714" points="119.64,35.078 119.64,35.799 119.396,35.799 119.396,37.656 118.557,37.656 118.557,35.542
						118.687,35.438 118.687,34.793 					"/>
				</g>
				<g>
					<polygon fill="#213F24" points="105.642,42.151 109.952,34.974 110.285,35.304 106.583,41.231 106.639,42.151 					"/>
				</g>
				<g>
					<polyline fill="#33693A" points="109.392,50.776 109.073,44.672 112.552,45.049 112.723,51.991 					"/>
				</g>
				<g opacity="0.3">
					<polygon fill="#161916" points="106.611,41.806 106.569,41.231 110.285,35.304 110.529,35.577 					"/>
				</g>
				<g opacity="0.2">
					<polyline fill="#20211F" points="116.745,43.208 116.758,41.987 117.376,42.646 124.135,42.125 124.117,42.404 					"/>
				</g>
				<g>
					<polygon fill="#33693A" points="105.139,42.151 109.952,34.149 118.175,42.646 117.376,42.646 109.952,34.974 105.655,42.151
											"/>
				</g>
				<g opacity="0.3">
					<path fill="#2C5A33" d="M121.199,38.092l4.465,3.896l-7.504,0.659l-4.828-4.99C113.332,37.656,119.358,37.782,121.199,38.092z"
						/>
				</g>
			</g>
		</g>
	</g>
	<g>
		<polygon fill="#E7F3E8" points="65.312,53.046 57.959,46.636 57.925,46.627 57.925,45.754 58.213,45.754 58.213,44.904
			57.089,44.569 55.266,44.813 55.266,45.664 55.541,45.664 55.541,46.024 46.801,43.815 46.795,43.81 46.793,43.813 46.779,43.81
			46.789,43.821 41.124,53.239 41.715,53.239 41.73,53.239 42.89,53.239 42.889,53.232 43.578,62.485 54.799,66.578 62.941,61.515
			63.51,53.208 63.23,53.229 		"/>
		<g>
			<g>
				<g>
					<polygon fill="#3EAA5C" points="45.144,61.382 44.49,52.616 48.208,46.689 54.667,53.372 54.667,64.853 					"/>
				</g>
				<g>
					<polygon fill="#2F8E47" points="61.576,60.555 62.057,53.508 55.299,54.03 54.667,53.372 54.667,64.853 					"/>
				</g>
				<g>
					<polygon fill="#36783E" points="47.859,45.533 56.082,54.03 63.587,53.372 57.349,47.932 					"/>
				</g>
				<g>
					<polygon fill="#323328" points="55.293,47.906 55.293,47.107 55.061,47.107 55.061,46.385 56.608,46.178 56.608,46.823
						56.479,46.926 56.479,49.04 					"/>
				</g>
				<g>
					<polygon fill="#171714" points="57.561,46.462 57.561,47.184 57.318,47.184 57.318,49.04 56.479,49.04 56.479,46.926
						56.608,46.823 56.608,46.178 					"/>
				</g>
				<g>
					<polygon fill="#213F24" points="43.562,53.535 47.874,46.358 48.208,46.689 44.506,52.616 44.56,53.535 					"/>
				</g>
				<g>
					<polyline fill="#33693A" points="47.314,62.161 46.996,56.056 50.474,56.433 50.644,63.375 					"/>
				</g>
				<g opacity="0.3">
					<polygon fill="#161916" points="44.534,53.19 44.49,52.616 48.208,46.689 48.45,46.961 					"/>
				</g>
				<g opacity="0.2">
					<polyline fill="#20211F" points="54.667,54.593 54.68,53.372 55.299,54.03 62.057,53.508 62.039,53.788 					"/>
				</g>
				<g>
					<polygon fill="#33693A" points="43.06,53.535 47.874,45.533 56.096,54.03 55.299,54.03 47.874,46.358 43.576,53.535 					"/>
				</g>
				<g opacity="0.3">
					<path fill="#2C5A33" d="M59.12,49.476l4.467,3.896l-7.505,0.659l-4.828-4.99C51.254,49.04,57.281,49.167,59.12,49.476z"/>
				</g>
			</g>
		</g>
	</g>
	<g>
		<polygon fill="#E7F3E8" points="101.124,12.677 93.771,6.267 93.736,6.258 93.736,5.385 94.026,5.385 94.026,4.535 92.9,4.2
			91.077,4.444 91.077,5.294 91.353,5.294 91.353,5.655 82.613,3.446 82.606,3.441 82.604,3.444 82.591,3.441 82.601,3.452
			76.936,12.87 77.527,12.87 77.543,12.87 78.702,12.87 78.701,12.863 79.39,22.116 90.611,26.209 98.754,21.145 99.322,12.838
			99.042,12.86 		"/>
		<g>
			<g>
				<g>
					<polygon fill="#3EAA5C" points="80.956,21.013 80.303,12.246 84.019,6.32 90.479,13.002 90.479,24.484 					"/>
				</g>
				<g>
					<polygon fill="#2F8E47" points="97.39,20.186 97.868,13.139 91.11,13.661 90.479,13.002 90.479,24.484 					"/>
				</g>
				<g>
					<polygon fill="#36783E" points="83.671,5.164 91.894,13.661 99.398,13.002 93.16,7.562 					"/>
				</g>
				<g>
					<polygon fill="#323328" points="91.106,7.536 91.106,6.738 90.873,6.738 90.873,6.016 92.42,5.808 92.42,6.454 92.291,6.557
						92.291,8.671 					"/>
				</g>
				<g>
					<polygon fill="#171714" points="93.373,6.093 93.373,6.815 93.131,6.815 93.131,8.671 92.291,8.671 92.291,6.557 92.42,6.454
						92.42,5.808 					"/>
				</g>
				<g>
					<polygon fill="#213F24" points="79.374,13.166 83.685,5.989 84.019,6.32 80.317,12.246 80.372,13.166 					"/>
				</g>
				<g>
					<polyline fill="#33693A" points="83.126,21.792 82.808,15.687 86.286,16.063 86.456,23.006 					"/>
				</g>
				<g opacity="0.3">
					<polygon fill="#161916" points="80.346,12.821 80.303,12.246 84.019,6.32 84.263,6.592 					"/>
				</g>
				<g opacity="0.2">
					<polyline fill="#20211F" points="90.479,14.224 90.491,13.002 91.11,13.661 97.868,13.139 97.852,13.419 					"/>
				</g>
				<g>
					<polygon fill="#33693A" points="78.873,13.166 83.685,5.164 91.908,13.661 91.11,13.661 83.685,5.989 79.389,13.166 					"/>
				</g>
				<g opacity="0.3">
					<path fill="#2C5A33" d="M94.933,9.106l4.466,3.896l-7.504,0.659l-4.828-4.99C87.066,8.671,93.093,8.797,94.933,9.106z"/>
				</g>
			</g>
		</g>
	</g>
	<g>
		<polygon fill="#E7F3E8" points="72.773,183.727 65.422,177.314 65.387,177.305 65.387,176.432 65.676,176.432 65.676,175.582
			64.551,175.248 62.728,175.49 62.728,176.342 63.002,176.342 63.002,176.703 54.263,174.492 54.256,174.488 54.256,174.492
			54.241,174.488 54.25,174.5 48.586,183.916 49.178,183.916 49.192,183.916 50.352,183.916 50.351,183.91 51.039,193.164
			62.262,197.256 70.403,192.193 70.972,183.887 70.691,183.906 		"/>
		<g>
			<g>
				<g>
					<polygon fill="#3EAA5C" points="52.605,192.059 51.953,183.293 55.67,177.367 62.129,184.049 62.129,195.529 					"/>
				</g>
				<g>
					<polygon fill="#2F8E47" points="69.039,191.232 69.519,184.186 62.76,184.707 62.129,184.049 62.129,195.529 					"/>
				</g>
				<g>
					<polygon fill="#36783E" points="55.321,176.211 63.545,184.707 71.049,184.049 64.81,178.609 					"/>
				</g>
				<g>
					<polygon fill="#323328" points="62.756,178.584 62.756,177.783 62.523,177.783 62.523,177.064 64.07,176.855 64.07,177.5
						63.941,177.604 63.941,179.719 					"/>
				</g>
				<g>
					<polygon fill="#171714" points="65.023,177.141 65.023,177.863 64.781,177.863 64.781,179.719 63.941,179.719 63.941,177.604
						64.07,177.5 64.07,176.855 					"/>
				</g>
				<g>
					<polygon fill="#213F24" points="51.024,184.213 55.336,177.037 55.67,177.367 51.967,183.293 52.021,184.213 					"/>
				</g>
				<g>
					<polyline fill="#33693A" points="54.776,192.838 54.457,186.734 57.935,187.111 58.106,194.053 					"/>
				</g>
				<g opacity="0.3">
					<polygon fill="#161916" points="51.996,183.869 51.953,183.293 55.67,177.367 55.912,177.639 					"/>
				</g>
				<g opacity="0.2">
					<polyline fill="#20211F" points="62.129,185.271 62.141,184.049 62.76,184.707 69.519,184.186 69.501,184.467 					"/>
				</g>
				<g>
					<polygon fill="#33693A" points="50.523,184.213 55.336,176.211 63.559,184.707 62.76,184.707 55.336,177.037 51.038,184.213
											"/>
				</g>
				<g opacity="0.3">
					<path fill="#2C5A33" d="M66.582,180.154l4.467,3.895l-7.504,0.658l-4.828-4.988C58.717,179.719,64.743,179.846,66.582,180.154z
						"/>
				</g>
			</g>
		</g>
	</g>
	<g>
		<polygon fill="#E7F3E8" points="34.634,54.182 27.281,47.771 27.247,47.762 27.247,46.889 27.536,46.889 27.536,46.039
			26.411,45.703 24.588,45.947 24.588,46.798 24.863,46.798 24.863,47.159 16.123,44.95 16.116,44.944 16.115,44.949 16.102,44.944
			16.11,44.956 10.446,54.374 11.037,54.374 11.053,54.374 12.211,54.374 12.211,54.366 12.899,63.62 24.121,67.713 32.264,62.649
			32.832,54.343 32.553,54.364 		"/>
		<g>
			<g>
				<g>
					<polygon fill="#3EAA5C" points="14.466,62.517 13.812,53.749 17.529,47.824 23.988,54.506 23.988,65.988 					"/>
				</g>
				<g>
					<polygon fill="#2F8E47" points="30.898,61.69 31.379,54.643 24.62,55.164 23.988,54.506 23.988,65.988 					"/>
				</g>
				<g>
					<polygon fill="#36783E" points="17.182,46.668 25.404,55.164 32.908,54.506 26.671,49.066 					"/>
				</g>
				<g>
					<polygon fill="#323328" points="24.615,49.041 24.615,48.242 24.383,48.242 24.383,47.52 25.93,47.312 25.93,47.958
						25.801,48.061 25.801,50.175 					"/>
				</g>
				<g>
					<polygon fill="#171714" points="26.884,47.596 26.884,48.319 26.641,48.319 26.641,50.175 25.801,50.175 25.801,48.061
						25.93,47.958 25.93,47.312 					"/>
				</g>
				<g>
					<polygon fill="#213F24" points="12.885,54.669 17.196,47.493 17.529,47.824 13.828,53.749 13.881,54.669 					"/>
				</g>
				<g>
					<polyline fill="#33693A" points="16.637,63.295 16.317,57.19 19.795,57.567 19.967,64.51 					"/>
				</g>
				<g opacity="0.3">
					<polygon fill="#161916" points="13.855,54.324 13.812,53.749 17.529,47.824 17.772,48.095 					"/>
				</g>
				<g opacity="0.2">
					<polyline fill="#20211F" points="23.988,55.728 24.002,54.506 24.62,55.164 31.379,54.643 31.361,54.922 					"/>
				</g>
				<g>
					<polygon fill="#33693A" points="12.383,54.669 17.196,46.668 25.418,55.164 24.62,55.164 17.196,47.493 12.898,54.669 					"/>
				</g>
				<g opacity="0.3">
					<path fill="#2C5A33" d="M28.441,50.61l4.467,3.896l-7.504,0.658l-4.828-4.989C20.576,50.175,26.603,50.301,28.441,50.61z"/>
				</g>
			</g>
		</g>
	</g>
</g>
</svg>
