<svg xmlns="http://www.w3.org/2000/svg" viewBox="0 0 180 200" enable-background="new 0 0 180 200"><filter id="a" filterUnits="objectBoundingBox"><feGaussianBlur in="SourceAlpha" stdDeviation="2" result="blur"/><feOffset dy="2" dx="2" in="blur" result="offsetBlurredAlpha"/><feMerge><feMergeNode in="offsetBlurredAlpha"/><feMergeNode in="SourceGraphic"/></feMerge></filter><g filter="url(#a)"><path fill="none" stroke="#E7F3E8" stroke-width="3" stroke-miterlimit="10" d="M83.87 109.13L13.02 35.382m70.85 73.748l-62.17-2.338m60.497.764L57.22 168.56m26.65-59.43L150.5 133m-5.53-113.848l-61.1 89.977M156.6 73.1l-72.73 36.03m31.876 42.898l-31.875-42.9m0 .002L70.53 43.293"/><path fill="#E7F3E8" d="M22.317 28.313s.04-1.127-1.283-1.71c0 0-2.79-.366-4.12-.24-.316-.063-.703-.082-1.178-.045-.14-1.272-1.204-1.54-1.856-1.654-.66-.118-4.354.738-5.675 1.166-1.106.357-1.208 1.554-1.21 1.94l-3.457.576s-1.202.383-1.563 1.494c0 0-.342 2.145-.505 4.535-.014.2.096.382.3.545-.003-.004-.016.025-.02.39 0 .008 0 .016.003.024-.087 2.023-.003 4.04.548 4.947 0 0-.78 1.13 13.89 3.39 0 0 .375.065.847 0 0 0 4.003.006 4.354-.224.51-.333 1.555-.43 1.827-2.332l-.892-12.79zM8.554 26.995c.505-.39 3.81-.895 4.393-.822.444.055.46.377.442.528l-.13.03c-1.37.2-2.87.467-4.2.7l-.63.107c-.1-.47.12-.533.12-.533zm-6.78 7.923v.003z"/><path fill="#2F7B3C" d="M22.01 40.338l-.795-11.38s.036-1.003-1.14-1.52c0 0-3.702-.486-4.22-.07-1.103.882.656 15.245.656 15.245s3.56.004 3.88-.2c.458-.297 1.387-.38 1.63-2.075z"/><path fill="#33693A" d="M7.586 28.582S7.484 27.13 8.66 26.75c1.176-.38 4.46-1.142 5.05-1.04.587.104 1.554.346 1.656 1.523l-2.107.362s.13-.476-.38-.54c-.52-.064-3.46.385-3.91.73 0 0-.24.07-.07.625l-1.32.172z"/><path fill="#2F8E47" d="M3.41 30.317s-1.154 7.386 0 9.288c0 0-.7 1.003 12.35 3.008 0 0 1.963.328 2.344-1.417l-.352-12.21s-.14-2.005-2.413-1.798l-10.57 1.8s-1.05.34-1.37 1.33z"/><path opacity=".1" fill="#1C261D" d="M2.94 34.838s-.016-.062-.02.347c-.004.406 4.323 2.54 15.048.586 0 0 .023-.85-.094-1.09-.118-.24-14.934.16-14.934.16z"/><path fill="#3EAA5C" d="M3.12 30.317s-.305 1.91-.45 4.034c-.14 2.06 13.867 1.85 15.086.53.783-.85.19-4.56-.01-5.883-.115-.753-.143-2.006-2.463-1.8L4.51 28.99s-1.07.34-1.39 1.33z"/><path opacity=".05" fill="#1C261D" d="M16.826 27.347s.64.162.783.902c.14.73 1 5.54.14 6.62 0 0-.776.73-4.457 1-.057 0-.115.01-.175.01-3.83.26-6.407-.17-7.45-.26-1.045-.09-.393-6.85.617-6.94 1.29-.11 9.575-1.882 10.53-1.343z"/><path fill="#33693A" d="M12.47 34.022s-.73.847-.307 2.954c.027.132.065.25.44.31.173.03.42.064.662-.233.47-.57.552-1.44.357-2.928 0 0-.438-.53-1.152-.103zm-7.072.138s-.576.67-.242 2.335c.02.104.05.197.347.246.138.03.33.05.525-.18.37-.45.434-1.133.28-2.31 0 0-.345-.42-.91-.08z"/><path fill="#E7F3E8" d="M61.04 168.624s.037-1.13-1.285-1.71c0 0-2.79-.367-4.12-.242-.315-.062-.702-.08-1.178-.043-.138-1.28-1.204-1.55-1.855-1.66-.66-.12-4.354.732-5.677 1.16-1.104.355-1.207 1.554-1.21 1.937l-3.454.577s-1.2.385-1.56 1.494c0 0-.34 2.15-.5 4.535-.012.2.097.383.3.545-.003 0-.015.026-.02.39v.027c-.084 2.02 0 4.04.55 4.947 0 0-.786 1.126 13.88 3.382 0 0 .375.062.847-.004 0 0 4.003.005 4.355-.225.51-.333 1.556-.426 1.827-2.332l-.89-12.79zm-13.763-1.32c.505-.387 3.81-.893 4.392-.82.44.054.46.375.44.526l-.13.023c-1.37.2-2.87.464-4.2.7l-.63.104c-.1-.468.12-.533.12-.533zm-6.782 7.925v-.01z"/><path fill="#2F7B3C" d="M60.735 180.648l-.796-11.38s.03-1.003-1.15-1.522c0 0-3.7-.485-4.22-.07-1.1.884.655 15.248.655 15.248s3.56.003 3.874-.2c.454-.295 1.384-.38 1.627-2.076z"/><path fill="#33693A" d="M46.31 168.892s-.102-1.452 1.074-1.83c1.175-.382 4.46-1.143 5.048-1.04.59.103 1.557.346 1.657 1.523l-2.11.36s.14-.473-.38-.538c-.52-.065-3.46.385-3.91.73 0 0-.246.07-.07.624l-1.32.18z"/><path fill="#2F8E47" d="M42.133 170.628s-1.155 7.385 0 9.29c0 0-.7 1.003 12.348 3.008 0 0 1.97.326 2.35-1.42l-.35-12.208s-.14-2.008-2.41-1.8l-10.564 1.8s-1.05.34-1.364 1.33z"/><path opacity=".1" fill="#1C261D" d="M41.664 175.15s-.017-.06-.02.345c-.005.408 4.322 2.542 15.047.588 0 0 .03-.853-.09-1.092-.11-.23-14.93.16-14.93.16z"/><path fill="#3EAA5C" d="M41.842 170.628s-.303 1.908-.447 4.034c-.14 2.057 13.866 1.847 15.085.524.783-.855.188-4.56-.01-5.887-.115-.76-.143-2.01-2.463-1.8l-10.773 1.8c0-.01-1.07.34-1.392 1.32z"/><path opacity=".05" fill="#1C261D" d="M55.548 167.658s.64.162.783.9c.15.74 1.01 5.543.15 6.628 0 0-.77.728-4.45.998-.054.002-.112.008-.17.01-3.83.258-6.407-.166-7.45-.256-1.045-.09-.394-6.852.616-6.937 1.294-.1 9.578-1.88 10.53-1.34z"/><path fill="#33693A" d="M51.192 174.333s-.73.847-.306 2.956c.027.13.064.24.438.31.174.02.42.06.663-.24.47-.57.55-1.44.358-2.93 0 0-.437-.53-1.153-.1zm-7.072.137s-.575.67-.24 2.336c.02.103.05.197.346.247.136.02.33.048.524-.188.37-.448.435-1.136.28-2.312 0 0-.345-.422-.91-.082z"/><path fill="#E7F3E8" d="M155.757 10.198s.04-1.126-1.283-1.71c0 0-2.79-.367-4.12-.242-.315-.062-.702-.08-1.178-.044-.138-1.273-1.204-1.54-1.855-1.654-.66-.118-4.35.738-5.67 1.166-1.1.356-1.203 1.554-1.21 1.94l-3.453.575s-1.203.38-1.563 1.49c0 0-.342 2.14-.505 4.53-.01.2.097.38.3.544 0-.003-.014.025-.02.392 0 .007 0 .014.005.022-.087 2.02-.002 4.037.55 4.945 0 0-.79 1.127 13.88 3.383 0 0 .375.063.847 0 0 0 4.006.003 4.357-.227.507-.333 1.552-.428 1.825-2.333l-.894-12.79zM141.995 8.88c.505-.388 3.81-.894 4.393-.822.445.055.46.376.443.527l-.12.022c-1.37.202-2.87.465-4.2.7l-.63.105c-.096-.468.124-.532.124-.532zm-6.78 7.923z"/><path fill="#2F7B3C" d="M155.452 22.223l-.796-11.38s.036-1.003-1.14-1.52c0 0-3.702-.486-4.22-.07-1.102.882.657 15.246.657 15.246s3.562 0 3.874-.21c.454-.297 1.383-.38 1.625-2.076z"/><path fill="#33693A" d="M141.027 10.468s-.102-1.453 1.074-1.834c1.18-.38 4.47-1.14 5.05-1.037.59.103 1.56.346 1.66 1.522l-2.1.36s.14-.48-.38-.54c-.517-.07-3.46.38-3.907.73 0 0-.242.07-.07.62l-1.316.17z"/><path fill="#2F8E47" d="M136.852 12.203s-1.154 7.386 0 9.288c0 0-.702 1.01 12.346 3.01 0 0 1.964.33 2.347-1.41l-.352-12.21s-.14-2.004-2.413-1.8l-10.566 1.8s-1.05.34-1.362 1.33z"/><path opacity=".1" fill="#1C261D" d="M136.382 16.724s-.017-.06-.02.347c-.004.41 4.32 2.55 15.047.59 0 0 .02-.85-.1-1.09-.12-.24-14.93.16-14.93.16z"/><path fill="#3EAA5C" d="M136.56 12.203s-.302 1.908-.447 4.034c-.14 2.057 13.866 1.85 15.086.522.78-.86.18-4.56-.02-5.89-.115-.758-.144-2.01-2.46-1.8l-10.77 1.8s-1.07.34-1.396 1.33z"/><path opacity=".05" fill="#1C261D" d="M150.266 9.232s.64.162.783.902c.14.74 1 5.54.14 6.624 0 0-.775.73-4.458 1-.056.002-.114.008-.174.012-3.83.257-6.408-.167-7.45-.256-1.046-.092-.393-6.854.616-6.938 1.293-.108 9.58-1.882 10.532-1.344z"/><path fill="#33693A" d="M145.912 15.908s-.73.847-.307 2.955c.027.132.065.25.44.31.173.03.418.064.662-.234.47-.57.55-1.44.358-2.93-.002 0-.44-.53-1.153-.11zm-7.072.137s-.577.67-.243 2.335c.02.103.052.197.347.246.138.022.332.05.525-.186.36-.45.43-1.137.28-2.314 0 0-.35-.42-.91-.08z"/><path fill="#E7F3E8" d="M29.66 101.22s.04-1.126-1.284-1.71c0 0-2.79-.366-4.12-.24-.315-.062-.702-.08-1.178-.044-.138-1.273-1.204-1.54-1.855-1.654-.66-.118-4.354.738-5.676 1.166-1.105.356-1.207 1.554-1.21 1.94l-3.457.575s-1.203.384-1.563 1.495c0 0-.342 2.145-.505 4.534-.013.2.096.382.3.545-.003-.003-.015.024-.02.39 0 .01 0 .017.004.025-.088 2.022-.003 4.038.55 4.945 0 0-.79 1.127 13.88 3.384 0 0 .374.07.846 0 0 0 4.004.01 4.356-.22.508-.33 1.553-.425 1.826-2.33l-.895-12.79zm-13.764-1.317c.505-.388 3.81-.894 4.393-.822.44.06.45.38.44.53l-.13.03c-1.37.202-2.87.465-4.2.7l-.63.105c-.1-.47.12-.532.12-.532zm-6.78 7.924z"/><path fill="#2F7B3C" d="M29.354 113.247l-.796-11.38s.036-1.003-1.14-1.52c0 0-3.702-.486-4.22-.07-1.102.882.657 15.245.657 15.245s3.562.003 3.874-.2c.45-.297 1.38-.382 1.62-2.075z"/><path fill="#33693A" d="M14.93 101.49s-.104-1.452 1.073-1.832c1.177-.38 4.46-1.14 5.048-1.038.59.104 1.56.346 1.66 1.522l-2.1.362s.14-.475-.38-.54c-.52-.064-3.46.386-3.91.73 0 0-.24.07-.07.625l-1.313.17z"/><path fill="#2F8E47" d="M10.753 103.226s-1.154 7.386 0 9.288c0 0-.702 1.004 12.347 3.01 0 0 1.964.327 2.347-1.42l-.352-12.208s-.14-2.006-2.413-1.8l-10.566 1.8s-1.05.342-1.363 1.33z"/><path opacity=".1" fill="#1C261D" d="M10.283 107.747s-.016-.06-.02.347c-.004.405 4.32 2.54 15.047.585 0 0 .023-.86-.096-1.1-.114-.24-14.93.16-14.93.16z"/><path fill="#3EAA5C" d="M10.46 103.226s-.3 1.908-.445 4.033c-.14 2.05 13.866 1.84 15.086.52.79-.86.19-4.56-.01-5.89-.11-.75-.14-2.01-2.46-1.8l-10.77 1.8s-1.07.34-1.39 1.33z"/><path opacity=".05" fill="#1C261D" d="M24.168 100.256s.64.162.783.902c.15.738 1.01 5.54.15 6.624 0 0-.77.73-4.45 1-.054.002-.112.01-.172.012-3.832.257-6.41-.167-7.45-.256-1.046-.093-.393-6.853.616-6.938 1.294-.11 9.58-1.883 10.533-1.344z"/><path fill="#33693A" d="M19.813 106.93s-.73.85-.307 2.956c.027.132.065.25.44.31.173.03.42.064.662-.234.47-.57.55-1.438.358-2.93 0 0-.44-.53-1.153-.1zm-7.073.138s-.576.67-.242 2.336c.02.103.052.196.346.245.138.02.332.05.525-.19.36-.45.43-1.14.28-2.32 0 0-.35-.42-.91-.08z"/><path fill="#E7F3E8" d="M166.812 65.09s.04-1.126-1.283-1.71c0 0-2.79-.366-4.12-.24-.32-.062-.71-.08-1.18-.044-.14-1.273-1.21-1.54-1.86-1.655-.66-.11-4.357.74-5.68 1.17-1.105.36-1.207 1.56-1.21 1.94l-3.457.58s-1.204.385-1.564 1.496c0 0-.343 2.145-.506 4.534-.012.2.097.382.3.545-.002-.005-.014.022-.02.39 0 .01 0 .015.005.023-.09 2.023-.004 4.04.55 4.946 0 0-.79 1.125 13.88 3.38 0 0 .374.065.846 0 0 0 4.004.007 4.355-.224.51-.333 1.554-.428 1.827-2.333l-.894-12.79zm-13.762-1.317c.505-.388 3.81-.895 4.393-.822.445.06.46.38.443.53l-.13.03c-1.367.202-2.87.466-4.198.7l-.63.105c-.097-.47.122-.532.122-.532zm-6.78 7.924z"/><path fill="#2F7B3C" d="M166.508 77.116l-.796-11.38s.036-1.003-1.14-1.52c0 0-3.702-.486-4.22-.07-1.102.882.657 15.246.657 15.246s3.56.003 3.87-.202c.45-.295 1.38-.38 1.62-2.074z"/><path fill="#33693A" d="M152.083 65.36s-.102-1.453 1.074-1.833c1.177-.38 4.46-1.14 5.05-1.038.588.1 1.555.34 1.656 1.52l-2.106.36s.138-.48-.38-.54c-.518-.07-3.46.38-3.908.73 0 0-.25.07-.07.62l-1.32.17z"/><path fill="#2F8E47" d="M147.907 67.096s-1.154 7.386 0 9.288c0 0-.702 1.004 12.346 3.01 0 0 1.964.327 2.347-1.42l-.352-12.208s-.14-2.006-2.413-1.8l-10.566 1.8s-1.05.34-1.37 1.33z"/><path opacity=".1" fill="#1C261D" d="M147.437 71.617s-.017-.06-.02.347c-.004.405 4.32 2.54 15.047.585 0 0 .022-.86-.096-1.1-.114-.24-14.93.16-14.93.16z"/><path fill="#3EAA5C" d="M147.614 67.096s-.3 1.908-.446 4.033c-.14 2.05 13.866 1.84 15.086.52.783-.86.188-4.56-.01-5.89-.115-.75-.144-2.01-2.463-1.8l-10.77 1.8s-1.07.34-1.39 1.33z"/><path opacity=".05" fill="#1C261D" d="M161.322 64.126s.64.16.783.9c.144.74 1.003 5.542.15 6.625 0 0-.775.74-4.458 1l-.174.02c-3.832.26-6.408-.165-7.45-.254-1.046-.093-.393-6.853.616-6.94 1.29-.11 9.57-1.88 10.53-1.342z"/><path fill="#33693A" d="M156.967 70.8s-.73.85-.307 2.956c.027.132.065.25.44.31.173.03.418.064.662-.234.47-.57.55-1.438.358-2.928 0 0-.44-.53-1.153-.103zm-7.073.138s-.576.67-.242 2.336c.02.102.052.196.346.245.138.02.332.05.526-.19.37-.45.433-1.14.28-2.32 0 0-.344-.42-.91-.08z"/><path fill="#E7F3E8" d="M128.428 144.746s.04-1.127-1.283-1.71c0 0-2.79-.367-4.12-.242-.315-.06-.702-.08-1.178-.043-.138-1.27-1.204-1.54-1.855-1.65-.66-.12-4.354.74-5.676 1.17-1.105.357-1.207 1.555-1.21 1.94l-3.457.576s-1.21.384-1.57 1.495c0 0-.34 2.145-.508 4.534-.013.2.096.38.3.545-.003-.003-.015.024-.02.39 0 .01 0 .016.004.024-.088 2.02-.003 4.037.55 4.944 0 0-.79 1.128 13.88 3.385 0 0 .374.06.846-.004 0 0 4.006.004 4.358-.227.51-.33 1.554-.428 1.827-2.33l-.893-12.79zm-13.762-1.318c.505-.388 3.81-.895 4.393-.822.44.054.45.375.44.526l-.13.023c-1.37.202-2.87.466-4.2.7l-.63.105c-.1-.468.12-.532.12-.532zm-6.78 7.924z"/><path fill="#2F7B3C" d="M128.124 156.77l-.796-11.378s.036-1.004-1.14-1.522c0 0-3.702-.485-4.22-.07-1.102.883.657 15.247.657 15.247s3.562.003 3.874-.202c.45-.295 1.38-.38 1.62-2.074z"/><path fill="#33693A" d="M113.7 145.016s-.103-1.453 1.073-1.833c1.177-.38 4.46-1.14 5.048-1.038.59.104 1.56.346 1.66 1.522l-2.1.362s.14-.48-.38-.54c-.52-.07-3.46.38-3.91.73 0 0-.24.07-.07.62l-1.313.17z"/><path fill="#2F8E47" d="M109.523 146.75s-1.154 7.387 0 9.29c0 0-.702 1.003 12.346 3.01 0 0 1.96.326 2.34-1.42l-.35-12.21s-.14-2.005-2.417-1.798l-10.566 1.8c0-.002-1.05.34-1.36 1.33z"/><path opacity=".1" fill="#1C261D" d="M109.053 151.272s-.016-.06-.02.347c-.004.4 4.32 2.54 15.047.58 0 0 .023-.85-.096-1.09-.114-.24-14.93.16-14.93.16z"/><path fill="#3EAA5C" d="M109.23 146.75s-.3 1.91-.446 4.034c-.14 2.058 13.866 1.85 15.086.522.782-.853.188-4.558-.01-5.886-.115-.752-.144-2.006-2.463-1.798l-10.773 1.798s-1.07.342-1.394 1.33z"/><path opacity=".05" fill="#1C261D" d="M122.938 143.78s.64.162.783.902c.15.738 1.01 5.54.15 6.624 0 0-.77.73-4.45 1-.054.002-.112.01-.172.012-3.832.257-6.41-.167-7.45-.256-1.046-.093-.393-6.853.616-6.938 1.294-.108 9.578-1.882 10.533-1.343z"/><path fill="#33693A" d="M118.583 150.456s-.73.848-.307 2.955c.027.14.065.25.44.32.173.03.42.064.662-.234.47-.57.55-1.44.358-2.93 0 0-.44-.53-1.153-.102zm-7.073.137s-.576.67-.242 2.336c.02.1.052.19.347.24.138.02.332.05.525-.19.37-.45.433-1.138.28-2.315 0 0-.344-.418-.91-.08z"/><path fill="#E7F3E8" d="M80.682 34.63s.038-1.126-1.284-1.71c0 0-2.79-.365-4.12-.24-.316-.062-.703-.08-1.18-.045-.137-1.273-1.202-1.54-1.854-1.655-.66-.117-4.355.74-5.675 1.167-1.11.357-1.21 1.555-1.22 1.94l-3.457.575s-1.203.384-1.563 1.495c0 0-.342 2.144-.505 4.534-.013.2.095.39.3.55-.005 0-.016.03-.02.39 0 .01 0 .02.002.03-.086 2.022-.003 4.04.547 4.946 0 0-.785 1.128 13.88 3.38 0 0 .378.064.85 0 0 0 4 .004 4.352-.225.51-.334 1.555-.43 1.826-2.332l-.89-12.79zM66.92 33.314c.504-.388 3.808-.894 4.39-.822.445.056.46.377.444.528l-.13.022c-1.366.202-2.87.466-4.198.7l-.628.106c-.1-.47.12-.533.12-.533zm-6.784 7.924z"/><path fill="#2F7B3C" d="M80.376 46.656l-.796-11.38s.036-1.002-1.14-1.52c0 0-3.702-.485-4.22-.07-1.103.882.656 15.245.656 15.245s3.56.01 3.875-.2c.46-.29 1.39-.38 1.63-2.07z"/><path fill="#33693A" d="M65.95 34.9s-.102-1.452 1.074-1.832c1.176-.38 4.462-1.14 5.05-1.037.588.11 1.556.35 1.656 1.53l-2.106.36s.14-.472-.38-.54c-.518-.062-3.458.388-3.907.73 0 0-.243.07-.07.627l-1.316.17z"/><path fill="#2F8E47" d="M61.774 36.635s-1.154 7.387 0 9.29c0 0-.7 1 12.347 3.007 0 0 1.97.328 2.35-1.417l-.35-12.21s-.14-2.005-2.41-1.8l-10.564 1.8s-1.05.342-1.363 1.33z"/><path opacity=".1" fill="#1C261D" d="M61.305 41.157s-.017-.06-.02.346c-.005.406 4.322 2.54 15.046.587 0 0 .03-.852-.09-1.09-.11-.24-14.93.157-14.93.157z"/><path fill="#3EAA5C" d="M61.484 36.635s-.304 1.91-.448 4.035c-.14 2.057 13.866 1.847 15.085.522.79-.853.19-4.56-.01-5.886-.11-.753-.14-2.006-2.46-1.798l-10.77 1.798s-1.064.34-1.39 1.33z"/><path opacity=".05" fill="#1C261D" d="M75.19 33.666s.64.162.783.9c.145.74 1.002 5.542.15 6.626 0 0-.775.73-4.458 1l-.173.01c-3.832.258-6.407-.166-7.452-.256-1.044-.092-.392-6.853.617-6.937 1.294-.11 9.58-1.89 10.533-1.35z"/><path fill="#33693A" d="M70.834 40.34s-.73.847-.306 2.955c.027.133.065.25.438.312.175.028.42.063.664-.235.47-.57.55-1.44.357-2.93 0 0-.438-.53-1.153-.102zm-7.07.138s-.577.67-.244 2.335c.02.104.05.197.347.245.137.023.33.05.524-.185.37-.45.44-1.137.29-2.314 0 0-.345-.42-.91-.09z"/><path fill="#E7F3E8" d="M159.932 128.57s.04-1.126-1.283-1.71c0 0-2.79-.365-4.12-.24-.32-.064-.71-.08-1.18-.044-.14-1.272-1.21-1.542-1.86-1.655-.665-.11-4.357.74-5.677 1.17-1.106.36-1.207 1.56-1.21 1.94l-3.456.58s-1.204.386-1.563 1.496c0 0-.343 2.147-.505 4.536-.015.2.095.38.3.546-.005-.002-.018.026-.024.39 0 .01.002.016.004.025-.09 2.02-.006 4.04.546 4.947 0 0-.79 1.13 13.88 3.385 0 0 .375.06.847 0 0 0 4 .006 4.356-.225.51-.333 1.553-.427 1.824-2.333l-.896-12.79zm-13.762-1.317c.506-.388 3.81-.896 4.392-.823.443.056.46.377.443.526l-.13.023c-1.367.2-2.87.46-4.198.7l-.63.1c-.096-.47.123-.53.123-.53zm-6.783 7.924h.003v.002s0-.01-.003-.01z"/><path fill="#2F7B3C" d="M159.626 140.595l-.794-11.378s.033-1.004-1.14-1.52c0 0-3.704-.486-4.222-.072-1.1.883.657 15.246.657 15.246s3.56.01 3.874-.2c.46-.29 1.39-.38 1.63-2.07z"/><path fill="#33693A" d="M145.204 128.84s-.102-1.452 1.073-1.833c1.174-.38 4.462-1.142 5.05-1.037.59.102 1.556.346 1.656 1.522l-2.106.362s.138-.475-.38-.54c-.518-.063-3.458.385-3.908.73 0 0-.25.07-.07.624l-1.32.172z"/><path fill="#2F8E47" d="M141.024 130.573s-1.154 7.39 0 9.29c0 0-.698 1.003 12.35 3.008 0 0 1.963.33 2.343-1.41l-.348-12.21s-.14-2.003-2.42-1.8l-10.57 1.8s-1.05.345-1.366 1.33z"/><path opacity=".1" fill="#1C261D" d="M140.557 135.096s-.017-.062-.023.345c-.003.41 4.323 2.55 15.048.59 0 0 .022-.85-.095-1.09-.114-.24-14.93.16-14.93.16z"/><path fill="#3EAA5C" d="M140.734 130.573s-.3 1.91-.445 4.037c-.15 2.055 13.86 1.846 15.08.52.78-.852.19-4.56-.01-5.885-.12-.755-.14-2.005-2.46-1.8l-10.78 1.8s-1.07.342-1.394 1.328z"/><path opacity=".05" fill="#1C261D" d="M154.442 127.604s.638.163.783.9c.145.742 1 5.543.15 6.628 0 0-.775.73-4.457.998-.058.003-.115.01-.174.013-3.832.257-6.408-.167-7.452-.258-1.043-.09-.392-6.85.62-6.938 1.292-.107 9.576-1.882 10.53-1.343z"/><path fill="#33693A" d="M150.085 134.28s-.73.845-.305 2.955c.027.13.064.248.44.312.173.03.417.062.66-.237.47-.57.553-1.44.36-2.926 0 0-.44-.533-1.155-.104zm-7.073.138s-.577.67-.24 2.334c.02.105.05.197.344.247.138.02.333.04.526-.19.372-.45.436-1.14.282-2.31 0 0-.346-.42-.912-.09z"/><path fill="#E7F3E8" d="M117.02 99.43L96.993 81.97l-.096-.023V79.57h.788v-2.315l-3.063-.91-4.963.662v2.317h.74v.98L66.6 74.29l-.014-.01-.007.01-.04-.01.023.027-15.43 25.65h4.81v-.018l1.875 25.2 30.56 11.14 22.177-13.79 1.544-22.62-.76.06"/><path fill="#3EAA5C" d="M62.094 122.13l-1.78-23.874 10.123-16.14 17.59 18.2v31.27"/><path fill="#2F8E47" d="M106.844 119.884l1.312-19.195-18.41 1.42-1.72-1.8v31.27"/><path fill="#36783E" d="M69.488 78.97l22.395 23.14 20.438-1.793L95.33 85.5"/><path fill="#323328" d="M89.735 85.43v-2.176h-.632v-1.967l4.212-.562v1.756l-.35.29v5.76"/><path fill="#171714" d="M95.914 81.498v1.966h-.666v5.056h-2.283v-5.758l.35-.28v-1.757"/><path fill="#213F24" d="M57.785 100.762l11.74-19.545.912.9-10.083 16.14.147 2.505"/><path fill="#33693A" d="M68.003 124.252l-.868-16.625 9.47 1.028.47 18.903"/><path fill="#161916" d="M60.43 99.823l-.116-1.567 10.123-16.14.66.743" opacity=".3"/><path fill="#20211F" d="M88.026 103.642l.037-3.325 1.683 1.793 18.41-1.42-.054.76" opacity=".2"/><path fill="#33693A" d="M56.42 100.762l13.106-21.79L91.92 102.11h-2.174l-20.22-20.893-11.703 19.545"/><path fill="#2C5A33" d="M100.154 89.708l12.168 10.61-20.438 1.792L78.73 88.52s16.416.344 21.424 1.188z" opacity=".3"/></g></svg>