<svg xmlns="http://www.w3.org/2000/svg" viewBox="0 0 180 200" enable-background="new 0 0 180 200"><filter id="a" filterUnits="objectBoundingBox"><feGaussianBlur in="SourceAlpha" stdDeviation="2" result="blur"/><feOffset dy="2" dx="2" in="blur" result="offsetBlurredAlpha"/><feMerge><feMergeNode in="offsetBlurredAlpha"/><feMergeNode in="SourceGraphic"/></feMerge></filter><g filter="url(#a)"><path fill="none" stroke="#E7F3E8" stroke-width="3" stroke-miterlimit="10" d="M69.35 110.037L21.312 57.19m48.038 52.847l-54.766-2.264m53.956.635l-7.86 75.69m8.67-74.06l84.064-20.04M115.092 45.05L69.35 110.037M87.894 15.53L69.35 110.038m44.068-35.624L69.35 110.037m41.83 45.555l-41.83-45.555m0 0L51.953 56.783"/><path fill="#E7F3E8" d="M94.715 90.83s.102-2.933-3.342-4.454c0 0-7.27-.953-10.73-.63-.826-.157-1.832-.207-3.07-.11-.36-3.317-3.137-4.015-4.834-4.31-1.72-.308-11.35 1.922-14.79 3.038-2.88.926-3.15 4.046-3.15 5.05l-9 1.502s-3.13 1-4.07 3.892c0 0-.9 5.587-1.32 11.812-.035.52.25.993.785 1.42-.01-.01-.046.062-.058 1.02 0 .02.003.036.01.06-.228 5.266-.01 10.52 1.427 12.885 0 0-2.052 2.936 36.156 8.81 0 0 .975.165 2.204 0 0 0 10.426.01 11.34-.59 1.33-.866 4.05-1.112 4.76-6.075l-2.33-33.32zm-35.85-3.43c1.314-1.01 9.924-2.328 11.443-2.14 1.156.142 1.197.98 1.15 1.372l-.336.058c-3.56.523-7.48 1.21-10.934 1.826l-1.64.27c-.257-1.218.316-1.386.316-1.386zM41.2 108.038s0 .005.003.005v.006c0-.01-.003-.01-.003-.01z"/><path fill="#2F7B3C" d="M93.92 122.154l-2.075-29.64s.093-2.613-2.973-3.963c0 0-9.64-1.26-10.99-.17-2.872 2.3 1.71 39.71 1.71 39.71s9.274.008 10.092-.523c1.18-.772 3.602-.99 4.235-5.405z"/><path fill="#33693A" d="M56.346 91.534s-.267-3.786 2.797-4.776c3.065-.99 11.62-2.97 13.154-2.702 1.532.27 4.05.9 4.315 3.966l-5.49.94s.362-1.237-.99-1.405c-1.35-.167-9.01 1.003-10.177 1.903 0 0-.633.183-.18 1.625l-3.43.45z"/><path fill="#2F8E47" d="M45.466 96.053s-3.007 19.238 0 24.193c0 0-1.825 2.613 32.165 7.84 0 0 5.12.854 6.11-3.695l-.91-31.8s-.36-5.22-6.28-4.68l-27.53 4.68s-2.735.888-3.554 3.463z"/><path opacity=".1" fill="#1C261D" d="M44.244 107.83s-.04-.158-.05.904c-.015 1.056 11.256 6.618 39.19 1.526 0 0 .06-2.216-.243-2.842-.3-.623-38.89.413-38.89.413z"/><path fill="#3EAA5C" d="M44.71 96.053s-.79 4.97-1.166 10.51c-.366 5.357 36.117 4.813 39.293 1.356 2.038-2.23.49-11.88-.03-15.34-.294-1.96-.37-5.226-6.413-4.684l-28.06 4.683s-2.787.89-3.624 3.465z"/><path opacity=".05" fill="#1C261D" d="M80.41 88.316s1.667.423 2.04 2.35c.373 1.922 2.61 14.433.387 17.253 0 0-2.018 1.9-11.606 2.6l-.45.03c-9.98.67-16.69-.44-19.4-.67-2.723-.24-1.025-17.85 1.607-18.07 3.37-.28 24.95-4.9 27.435-3.5z"/><path fill="#33693A" d="M69.066 105.705s-1.9 2.206-.8 7.696c.07.35.168.66 1.145.81.46.08 1.1.17 1.73-.61 1.23-1.48 1.44-3.74.93-7.63 0 0-1.14-1.38-3-.26zm-18.422.36s-1.5 1.744-.63 6.08c.054.27.132.515.903.642.357.058.863.13 1.365-.485.962-1.173 1.134-2.962.733-6.026.002 0-.898-1.094-2.37-.212z"/><path fill="#E7F3E8" d="M168.252 86.61l-7.35-6.41-.035-.01v-.872h.287v-.85l-1.125-.335-1.83.244v.85h.272v.36l-8.74-2.208-.005-.01-.015-.005.007.01-5.66 9.42h1.762v-.008l.69 9.25 11.222 4.096 8.143-5.064.57-8.31-.28.023"/><path fill="#3EAA5C" d="M148.084 94.945l-.652-8.765 3.715-5.927 6.46 6.683v11.482"/><path fill="#2F8E47" d="M164.518 94.12l.48-7.048-6.758.522-.633-.658v11.482"/><path fill="#36783E" d="M150.8 79.098l8.224 8.496 7.502-.658-6.236-5.44"/><path fill="#323328" d="M158.236 81.47v-.8h-.234v-.72l1.548-.208v.645l-.13.103v2.114"/><path fill="#171714" d="M160.503 80.026v.722h-.244v1.856h-.84V80.49l.13-.103v-.645"/><path fill="#213F24" d="M146.504 87.1l4.31-7.178.333.33-3.7 5.928.054.92"/><path fill="#33693A" d="M150.256 95.724l-.32-6.104 3.478.378.173 6.94"/><path fill="#161916" d="M147.475 86.754l-.043-.574 3.715-5.927.247.272" opacity=".3"/><path fill="#20211F" d="M157.607 88.157l.014-1.22.62.657 6.76-.522-.02.28" opacity=".2"/><path fill="#33693A" d="M146.004 87.1l4.81-8.002 8.224 8.496h-.798l-7.426-7.672-4.296 7.178"/><path fill="#2C5A33" d="M162.06 83.04l4.466 3.896-7.502.658-4.828-4.99s6.027.127 7.865.436z" opacity=".3"/><path fill="#E7F3E8" d="M128.416 69.976l-7.354-6.41-.034-.01v-.872h.29v-.85l-1.126-.335-1.82.24v.85h.272v.36l-8.74-2.21-.006-.01v.003l-.015-.004.01.01-5.665 9.42h1.766l-.002-.01.69 9.253 11.22 4.094 8.144-5.066.57-8.307-.282.022"/><path fill="#3EAA5C" d="M108.247 78.312l-.65-8.767 3.714-5.927 6.46 6.683v11.49"/><path fill="#2F8E47" d="M124.68 77.484l.48-7.046-6.76.522-.63-.66v11.483"/><path fill="#36783E" d="M110.964 62.463l8.22 8.497 7.506-.66-6.237-5.44"/><path fill="#323328" d="M118.397 64.835v-.8h-.23v-.72l1.546-.208v.645l-.13.104v2.114"/><path fill="#171714" d="M120.666 63.392v.72h-.244v1.858h-.84v-2.114l.13-.104v-.645"/><path fill="#213F24" d="M106.667 70.465l4.31-7.177.334.33-3.7 5.927.06.92"/><path fill="#33693A" d="M110.418 79.09l-.318-6.104 3.477.377.17 6.942"/><path fill="#161916" d="M107.638 70.12l-.042-.575 3.715-5.927.25.273" opacity=".3"/><path fill="#20211F" d="M117.77 71.522l.014-1.22.617.658 6.76-.522-.01.28" opacity=".2"/><path fill="#33693A" d="M106.165 70.465l4.812-8.002 8.224 8.497h-.8l-7.42-7.672-4.29 7.177"/><path fill="#2C5A33" d="M122.225 66.406l4.466 3.896-7.5.658-4.83-4.99s6.03.126 7.87.436z" opacity=".3"/><path fill="#E7F3E8" d="M123.27 151.525l-7.35-6.41-.034-.008v-.875h.288v-.85l-1.124-.333-1.823.24v.85h.274v.36l-8.73-2.21-.005-.01-.002.003-.013-.004.01.01-5.665 9.42h1.764v-.01l.686 9.255 11.223 4.094 8.14-5.066.57-8.307-.28.02"/><path fill="#3EAA5C" d="M103.104 159.86l-.653-8.766 3.72-5.926 6.46 6.684v11.48"/><path fill="#2F8E47" d="M119.536 159.035l.482-7.05-6.76.525-.63-.658v11.48"/><path fill="#36783E" d="M105.82 144.012l8.223 8.498 7.505-.658-6.24-5.44"/><path fill="#323328" d="M113.253 146.385v-.8h-.232v-.72l1.55-.21v.648l-.13.103v2.114"/><path fill="#171714" d="M115.52 144.94v.724h-.24v1.856h-.84v-2.114l.128-.103v-.647"/><path fill="#213F24" d="M101.523 152.014l4.312-7.176.334.33-3.71 5.926.05.92"/><path fill="#33693A" d="M105.275 160.64l-.318-6.105 3.478.377.17 6.943"/><path fill="#161916" d="M102.495 151.67l-.044-.576 3.72-5.926.24.273" opacity=".3"/><path fill="#20211F" d="M112.628 153.072l.012-1.22.62.658 6.758-.524-.017.282" opacity=".2"/><path fill="#33693A" d="M101.02 152.014l4.815-8.002 8.222 8.498h-.798l-7.43-7.672-4.3 7.176"/><path fill="#2C5A33" d="M117.08 147.955l4.468 3.896-7.505.66-4.827-4.99s6.025.13 7.864.44z" opacity=".3"/><path fill="#E7F3E8" d="M27.3 105.07l-7.35-6.41-.036-.008v-.874h.29v-.85l-1.126-.334-1.822.243v.85h.273v.36L8.79 95.84l-.007-.005-.002.003-.01-.003.01.01-5.66 9.418h1.76v-.007l.69 9.254 11.22 4.094 8.144-5.064.57-8.308-.28.022"/><path fill="#3EAA5C" d="M7.133 113.406l-.654-8.766 3.71-5.927 6.46 6.683v11.48"/><path fill="#2F8E47" d="M23.565 112.58l.482-7.047-6.76.52-.63-.657v11.48"/><path fill="#36783E" d="M9.85 97.557l8.22 8.497 7.506-.658-6.238-5.44"/><path fill="#323328" d="M17.282 99.93v-.8h-.23v-.72l1.546-.21v.648l-.13.103v2.12"/><path fill="#171714" d="M19.55 98.487v.722h-.242v1.85h-.84v-2.11l.13-.107V98.2"/><path fill="#213F24" d="M5.552 105.56l4.31-7.177.335.33-3.703 5.927.055.92"/><path fill="#33693A" d="M9.303 114.186l-.32-6.105 3.48.38.17 6.94"/><path fill="#161916" d="M6.523 105.215l-.044-.575 3.71-5.927.24.273" opacity=".3"/><path fill="#20211F" d="M16.656 106.618l.012-1.222.62.658 6.76-.52-.02.28" opacity=".2"/><path fill="#33693A" d="M5.05 105.56l4.813-8.003 8.223 8.497h-.8l-7.423-7.67-4.3 7.176"/><path fill="#2C5A33" d="M21.11 101.5l4.466 3.896-7.505.658-4.82-4.99s6.028.128 7.868.435z" opacity=".3"/><path fill="#E7F3E8" d="M127.39 41.662l-7.353-6.41-.035-.01v-.872h.29v-.85l-1.126-.335-1.823.244v.85h.276v.36l-8.74-2.21-.01-.01-.02-.004.01.01-5.667 9.42h1.767l-.002-.01.69 9.255 11.22 4.094 8.143-5.065.57-8.308-.28.02"/><path fill="#3EAA5C" d="M107.222 49.998l-.653-8.767 3.71-5.92 6.46 6.686v11.48"/><path fill="#2F8E47" d="M123.655 49.17l.48-7.045-6.76.52-.63-.658V53.47"/><path fill="#36783E" d="M109.938 34.15l8.222 8.496 7.504-.66-6.237-5.44"/><path fill="#323328" d="M117.372 36.52v-.797h-.232V35l1.547-.207v.645l-.13.104v2.114"/><path fill="#171714" d="M119.64 35.078v.72h-.244v1.858h-.84v-2.114l.13-.104v-.645"/><path fill="#213F24" d="M105.642 42.15l4.31-7.176.333.33-3.702 5.927.056.92"/><path fill="#33693A" d="M109.392 50.776l-.32-6.104 3.48.377.17 6.94"/><path fill="#161916" d="M106.61 41.806l-.04-.575 3.715-5.92.244.276" opacity=".3"/><path fill="#20211F" d="M116.745 43.208l.013-1.22.618.658 6.76-.52-.02.278" opacity=".2"/><path fill="#33693A" d="M105.14 42.15l4.812-8 8.223 8.496h-.8l-7.423-7.672-4.297 7.177"/><path fill="#2C5A33" d="M121.2 38.092l4.464 3.896-7.504.66-4.828-4.99c0-.002 6.026.124 7.867.434z" opacity=".3"/><path fill="#E7F3E8" d="M65.312 53.046l-7.353-6.41-.04-.01v-.872h.29v-.85l-1.13-.335-1.823.24v.85h.275v.36l-8.74-2.21-.006-.01v.003l-.016-.004.01.01-5.665 9.42h1.763v-.01l.69 9.254 11.22 4.094 8.143-5.064.57-8.306-.28.02"/><path fill="#3EAA5C" d="M45.144 61.382l-.654-8.766 3.718-5.927 6.46 6.68v11.48"/><path fill="#2F8E47" d="M61.576 60.555l.48-7.047-6.757.522-.64-.658v11.48"/><path fill="#36783E" d="M47.86 45.533l8.222 8.497 7.505-.658-6.238-5.44"/><path fill="#323328" d="M55.293 47.906v-.8h-.232v-.72l1.55-.208v.645l-.13.103v2.114"/><path fill="#171714" d="M57.56 46.462v.722h-.242v1.856h-.84v-2.114l.13-.103v-.645"/><path fill="#213F24" d="M43.562 53.535l4.312-7.177.334.33-3.702 5.928.054.92"/><path fill="#33693A" d="M47.314 62.16l-.318-6.104 3.478.377.17 6.942"/><path fill="#161916" d="M44.534 53.19l-.044-.574 3.718-5.927.242.27" opacity=".3"/><path fill="#20211F" d="M54.667 54.593l.013-1.22.62.657 6.757-.522-.018.28" opacity=".2"/><path fill="#33693A" d="M43.06 53.535l4.814-8.002 8.222 8.497H55.3l-7.426-7.672-4.298 7.177"/><path fill="#2C5A33" d="M59.12 49.476l4.467 3.896-7.505.66-4.828-4.99c0-.002 6.027.125 7.866.434z" opacity=".3"/><path fill="#E7F3E8" d="M101.124 12.677l-7.353-6.41-.03-.01v-.872h.29v-.85L92.9 4.2l-1.823.244v.85h.276v.36l-8.74-2.208-.007-.005-.002.01h-.013l.01.01-5.66 9.42h1.77v-.008l.69 9.253 11.22 4.093 8.144-5.064.568-8.305-.28.02"/><path fill="#3EAA5C" d="M80.956 21.013l-.653-8.767L84.02 6.32l6.46 6.682v11.482"/><path fill="#2F8E47" d="M97.39 20.186l.478-7.047-6.758.52-.63-.66v11.48"/><path fill="#36783E" d="M83.67 5.164l8.224 8.497 7.504-.65-6.238-5.44"/><path fill="#323328" d="M91.106 7.536v-.798h-.233v-.722l1.547-.208v.646l-.13.103V8.67"/><path fill="#171714" d="M93.373 6.093v.722h-.242V8.67h-.84V6.558l.13-.103V5.81"/><path fill="#213F24" d="M79.374 13.166l4.31-7.177.335.33-3.71 5.92.053.92"/><path fill="#33693A" d="M83.126 21.792l-.318-6.105 3.478.376.17 6.943"/><path fill="#161916" d="M80.346 12.82l-.043-.574L84.02 6.32l.243.272" opacity=".3"/><path fill="#20211F" d="M90.48 14.224l.01-1.222.62.66 6.758-.523-.016.28" opacity=".2"/><path fill="#33693A" d="M78.873 13.166l4.812-8.002 8.223 8.497h-.798l-7.425-7.67-4.296 7.18"/><path fill="#2C5A33" d="M94.933 9.106l4.466 3.896-7.51.66-4.83-4.99s6.024.125 7.864.434z" opacity=".3"/><path fill="#E7F3E8" d="M72.773 183.727l-7.35-6.413-.036-.01v-.872h.29v-.85l-1.126-.334-1.82.242v.852h.28v.36l-8.74-2.21-.005-.004v.004l-.015-.004.01.012-5.665 9.416h1.766v-.006l.688 9.254 11.223 4.092 8.14-5.063.57-8.306-.28.02"/><path fill="#3EAA5C" d="M52.605 192.06l-.652-8.767 3.717-5.926 6.46 6.682v11.48"/><path fill="#2F8E47" d="M69.04 191.232l.48-7.046-6.76.52-.63-.657v11.48"/><path fill="#36783E" d="M55.32 176.21l8.225 8.497 7.504-.658-6.24-5.44"/><path fill="#323328" d="M62.756 178.584v-.8h-.233v-.72l1.547-.21v.646l-.13.104v2.115"/><path fill="#171714" d="M65.023 177.14v.723h-.242v1.856h-.84v-2.12l.13-.11v-.646"/><path fill="#213F24" d="M51.024 184.213l4.312-7.176.334.33-3.703 5.926.054.92"/><path fill="#33693A" d="M54.776 192.838l-.32-6.104 3.48.377.17 6.95"/><path fill="#161916" d="M51.996 183.87l-.043-.577 3.717-5.926.242.272" opacity=".3"/><path fill="#20211F" d="M62.13 185.27l.01-1.22.62.657 6.76-.52-.02.28" opacity=".2"/><path fill="#33693A" d="M50.523 184.213l4.813-8.002 8.223 8.5h-.8l-7.43-7.67-4.3 7.18"/><path fill="#2C5A33" d="M66.582 180.154l4.467 3.895-7.51.65-4.83-4.99s6.024.126 7.863.434z" opacity=".3"/><path fill="#E7F3E8" d="M34.634 54.182l-7.353-6.41-.03-.01v-.873h.29v-.85l-1.12-.34-1.822.24v.85h.276v.36l-8.74-2.21-.007-.006v.005l-.014-.006.008.012-5.663 9.417h1.764v-.005l.69 9.252 11.22 4.09 8.145-5.062.57-8.307-.28.02"/><path fill="#3EAA5C" d="M14.466 62.517l-.654-8.768 3.717-5.93 6.45 6.68v11.48"/><path fill="#2F8E47" d="M30.898 61.69l.48-7.047-6.758.52-.632-.657v11.482"/><path fill="#36783E" d="M17.182 46.668l8.222 8.496 7.504-.658-6.237-5.44"/><path fill="#323328" d="M24.615 49.04v-.798h-.232v-.722l1.547-.208v.646l-.13.103v2.12"/><path fill="#171714" d="M26.884 47.596v.723h-.243v1.85h-.84v-2.11l.13-.107v-.646"/><path fill="#213F24" d="M12.885 54.67l4.31-7.177.334.33-3.71 5.926.052.92"/><path fill="#33693A" d="M16.637 63.295l-.32-6.105 3.478.377.172 6.943"/><path fill="#161916" d="M13.855 54.324l-.043-.575 3.717-5.93.24.27" opacity=".3"/><path fill="#20211F" d="M23.988 55.728l.014-1.222.618.658 6.76-.52-.02.278" opacity=".2"/><path fill="#33693A" d="M12.383 54.67l4.813-8.002 8.222 8.496h-.798l-7.424-7.67-4.298 7.175"/><path fill="#2C5A33" d="M28.44 50.61l4.468 3.896-7.504.658-4.828-4.99s6.027.127 7.865.436z" opacity=".3"/></g></svg>